SplineFontDB: 3.2
FontName: LuisAndraschko
FullName: LuisAndraschko
FamilyName: LuisAndraschko
Weight: Regular
Copyright: Copyright (c) 2021, luis_
UComments: "2021-12-17: Created with FontForge (http://fontforge.org)"
Version: 001.000
ItalicAngle: 0
UnderlinePosition: -100
UnderlineWidth: 50
Ascent: 800
Descent: 200
InvalidEm: 0
LayerCount: 2
Layer: 0 0 "Back" 1
Layer: 1 0 "Fore" 0
XUID: [1021 436 1670946542 27014]
StyleMap: 0x0000
FSType: 0
OS2Version: 0
OS2_WeightWidthSlopeOnly: 0
OS2_UseTypoMetrics: 1
CreationTime: 1639793392
ModificationTime: 1639919908
OS2TypoAscent: 0
OS2TypoAOffset: 1
OS2TypoDescent: 0
OS2TypoDOffset: 1
OS2TypoLinegap: 90
OS2WinAscent: 0
OS2WinAOffset: 1
OS2WinDescent: 0
OS2WinDOffset: 1
HheadAscent: 0
HheadAOffset: 1
HheadDescent: 0
HheadDOffset: 1
MarkAttachClasses: 1
DEI: 91125
Encoding: ISO8859-1
UnicodeInterp: none
NameList: AGL For New Fonts
DisplaySize: -48
AntiAlias: 1
FitToEm: 0
WinInfo: 0 38 14
BeginPrivate: 0
EndPrivate
Grid
-1000 369.035766602 m 0
 2000 369.035766602 l 1024
EndSplineSet
BeginChars: 256 95

StartChar: exclam
Encoding: 33 33 1
Width: 123
Flags: W
VStem: 27.6396 74.4072<124.78 491.224>
LayerCount: 2
Fore
SplineSet
52.515625 4.740234375 m 0
 22.33984375 14.8447265625 20.9833984375 55.951171875 48.2197265625 71.2392578125 c 0
 69.0751953125 82.9443359375 88.8408203125 75.27734375 97.3876953125 54.9501953125 c 0
 111.169921875 22.171875 85.669921875 -6.361328125 52.515625 4.740234375 c 0
50.2275390625 113.665039062 m 0
 24.3984375 124.016601562 21.8681640625 137.95703125 27.6396484375 238.077148438 c 0
 30.10546875 280.837890625 32.958984375 353.043945312 33.9814453125 398.53515625 c 0
 35.5654296875 469.03515625 37.23046875 482.782226562 45.25 491.643554688 c 0
 59.48046875 507.369140625 86.3017578125 505.413085938 100.489257812 487.615234375 c 0
 111.514648438 473.784179688 111.853515625 470.05859375 108.719726562 397.129882812 c 0
 106.921875 355.296875 103.918945312 278.987304688 102.046875 227.5546875 c 0
 99.330078125 152.921875 96.951171875 132.094726562 90.2626953125 124.41015625 c 0
 79.74609375 112.327148438 64.0673828125 108.118164062 50.2275390625 113.665039062 c 0
EndSplineSet
Validated: 524321
EndChar

StartChar: quotedbl
Encoding: 34 34 2
Width: 271
Flags: W
VStem: 22.0254 89.7197<613.465 791.804> 163.127 93.6182<609.809 788.486>
LayerCount: 2
Fore
SplineSet
39.96875 616.907226562 m 0
 25.8984375 631.884765625 24.2197265625 640.045898438 22.025390625 704.140625 c 0
 19.26171875 784.909179688 25.6962890625 799.999023438 62.9052734375 799.999023438 c 0
 95.0234375 799.999023438 105.884765625 782.467773438 111.745117188 721.170898438 c 0
 119.600585938 639 119.075195312 633.4296875 101.833984375 616.189453125 c 0
 81.498046875 595.853515625 59.5078125 596.109375 39.96875 616.907226562 c 0
185.885742188 608.782226562 m 0
 172.102539062 618.860351562 164.577148438 656.958984375 163.126953125 724.008789062 c 0
 162.211914062 766.274414062 164.000976562 775.530273438 175.262695312 786.791015625 c 0
 196.16015625 807.688476562 231.767578125 801.626953125 246.166015625 774.72265625 c 0
 249.728515625 768.065429688 254.489257812 733.3828125 256.745117188 697.6484375 c 0
 260.16796875 643.439453125 259.09375 630.002929688 250.267578125 616.530273438 c 0
 238.297851562 598.262695312 205.646484375 594.333007812 185.885742188 608.782226562 c 0
EndSplineSet
Validated: 524321
EndChar

StartChar: numbersign
Encoding: 35 35 3
Width: 548
InSpiro: 1
Flags: W
HStem: 152.901 78.2959<62.8119 156.24 375.977 518.471> 266.084 78.4805<38.496 172.652> 281.53 78.2949<391.935 514.415> 468.454 20G<216.983 247.834>
VStem: 156.428 79.3428<28.171 150.519> 173.205 78.2949<232.17 267.214> 189.697 79.7549<352.9 484.191> 280.795 78.6641<4.48945 145.036>
LayerCount: 2
Fore
SplineSet
304.435546875 1.6845703125 m 2xb3
 280.419921875 11.3095703125 277.719726562 20.912109375 280.794921875 85.7880859375 c 2
 283.69921875 147.057617188 l 1
 264.54296875 150.651367188 l 2
 254.006835938 152.626953125 243.759765625 152.616210938 241.770507812 150.627929688 c 0
 239.78125 148.639648438 237.081054688 124.581054688 235.770507812 97.1650390625 c 0
 233.064453125 40.55859375 224.03515625 24.2734375 195.357421875 24.2734375 c 0
 164.420898438 24.2734375 156.427734375 39.775390625 156.427734375 99.7724609375 c 2
 156.427734375 152.901367188 l 1xb9
 117.685546875 152.901367188 l 2
 82.494140625 152.901367188 77.8818359375 154.251953125 67.3525390625 167.637695312 c 0
 52.130859375 186.98828125 52.71875 200.700195312 69.4892578125 217.469726562 c 0
 81.603515625 229.583984375 88.10546875 231.197265625 124.81640625 231.197265625 c 0
 168.052734375 231.197265625 173.205078125 234.1328125 173.205078125 258.766601562 c 0
 173.205078125 267.70703125 168.03515625 268.400390625 118.677734375 266.083984375 c 0
 68.919921875 263.748046875 62.8056640625 264.591796875 48.771484375 275.729492188 c 0
 31.4365234375 289.486328125 28.513671875 311.224609375 41.505859375 329.7734375 c 0
 48.6689453125 340 57.2548828125 341.734375 114.706054688 344.564453125 c 0xd5
 150.502929688 346.327148438 181.146484375 349.125 182.802734375 350.78125 c 0
 184.459960938 352.438476562 187.561523438 378.993164062 189.697265625 409.793945312 c 0
 194.130859375 473.721679688 202.040039062 488.454101562 231.926757812 488.454101562 c 0
 263.7421875 488.454101562 270.575195312 474.024414062 269.452148438 409.211914062 c 2
 268.4765625 352.801757812 l 1
 288.643554688 356.07421875 l 2
 299.737304688 357.875 310.154296875 360.688476562 311.793945312 362.329101562 c 0
 313.434570312 363.96875 316.282226562 390.735351562 318.124023438 421.809570312 c 0
 321.114257812 472.258789062 322.8828125 479.451171875 334.643554688 488.973632812 c 0
 349.809570312 501.254882812 357.483398438 502.073242188 376.453125 493.4296875 c 0
 394.7265625 485.103515625 402.805664062 465.458984375 399.78515625 436.701171875 c 0
 398.413085938 423.640625 395.993164062 401 394.409179688 386.389648438 c 2
 391.528320312 359.825195312 l 1
 444.55078125 359.825195312 l 2
 490.116210938 359.825195312 499.145507812 358.252929688 508.7578125 348.640625 c 0
 523.844726562 333.553710938 523.051757812 308.770507812 506.999023438 293.689453125 c 0
 495.54296875 282.927734375 487.810546875 281.530273438 439.712890625 281.530273438 c 0
 381.028320312 281.530273438 383.203125 282.764648438 378.161132812 246.576171875 c 2
 375.240234375 225.604492188 l 1
 433.977539062 225.604492188 l 2
 509.235351562 225.604492188 525.276367188 218.15625 525.44921875 183.12890625 c 0
 525.59765625 152.211914062 513.543945312 147.309570312 437.342773438 147.309570312 c 0
 399.653320312 147.309570312 368.118164062 144.904296875 366.254882812 141.888671875 c 0
 364.411132812 138.908203125 361.354492188 111.018554688 359.458984375 79.9130859375 c 0
 355.86328125 20.8984375 349.750976562 5.8486328125 327 0 c 0
 320.848632812 -1.5810546875 310.694335938 -0.82421875 304.435546875 1.6845703125 c 2xb3
298.30859375 243.780273438 m 0
 305.916992188 272.171875 303.3828125 275.9375 276.666992188 275.9375 c 2
 251.5 275.9375 l 1
 251.5 253.567382812 l 2x95
 251.5 231.309570312 251.606445312 231.197265625 273.21875 231.197265625 c 0
 291.013671875 231.197265625 295.545898438 233.470703125 298.30859375 243.780273438 c 0
EndSplineSet
Validated: 524321
EndChar

StartChar: dollar
Encoding: 36 36 4
Width: 272
Flags: W
HStem: 481.522 20G<163.93 186.442>
VStem: 88.1279 74.4932<6.45256 50.426> 136.008 74.4814<436.721 497.932> 174.088 77.1807<293.986 373.28>
LayerCount: 2
Fore
SplineSet
98.767578125 12.0751953125 m 4xd0
 92.916015625 17.927734375 88.1279296875 25.9482421875 88.1279296875 29.900390625 c 4
 88.1279296875 33.8515625 76.302734375 44.435546875 61.849609375 53.4208984375 c 4
 19.1826171875 79.9443359375 0.3701171875 132.822265625 23.4580078125 161.334960938 c 4
 43.078125 185.564453125 88.1279296875 170.208007812 88.1279296875 139.290039062 c 4xd0
 88.1279296875 122.423828125 109.34765625 112.529296875 132.065429688 118.801757812 c 4
 158.478515625 126.094726562 183.888671875 148.217773438 183.888671875 163.919921875 c 4
 183.888671875 189.580078125 172.62109375 202.458007812 133.8359375 221.126953125 c 4
 94.126953125 240.240234375 64.181640625 268.30859375 58.2392578125 291.986328125 c 4
 53.2236328125 311.970703125 60.0224609375 366.072265625 70.046875 385.944335938 c 4
 81.21484375 408.08203125 102.864257812 431.282226562 121.377929688 440.953125 c 4
 132.346679688 446.681640625 136.0078125 452.555664062 136.0078125 464.41796875 c 4
 136.0078125 485.600585938 152.776367188 501.522460938 175.083984375 501.522460938 c 4
 197.799804688 501.522460938 210.489257812 487.655273438 210.489257812 462.834960938 c 4xa0
 210.489257812 450.280273438 213.868164062 441.19140625 220.224609375 436.653320312 c 4
 238.342773438 423.71484375 247.98046875 402.040039062 251.268554688 366.836914062 c 4
 255.391601562 322.677734375 247.337890625 300.875 223.169921875 290.77734375 c 4
 185.243164062 274.930664062 152.549804688 312.118164062 174.087890625 346.607421875 c 4
 182.143554688 359.505859375 176.34765625 373.840820312 163.077148438 373.840820312 c 4
 150.16796875 373.840820312 137.165039062 356.154296875 132.7421875 332.580078125 c 4
 128.493164062 309.932617188 139.3828125 297.307617188 172.712890625 286.237304688 c 4
 205.506835938 275.344726562 231.80078125 252.97265625 246.573242188 223.393554688 c 4
 279.043945312 158.376953125 258.141601562 96.5595703125 192 62 c 4
 174.869140625 53.048828125 162.62890625 43.076171875 162.62109375 38.0625 c 4
 162.62109375 33.3369140625 157.646484375 23.162109375 151.58203125 15.453125 c 4
 138.091796875 -1.697265625 114.076171875 -3.2333984375 98.767578125 12.0751953125 c 4xd0
EndSplineSet
Validated: 524321
EndChar

StartChar: percent
Encoding: 37 37 5
Width: 328
Flags: W
VStem: 27.624 80.749<385.766 452.689> 61.1445 84.7861<14.0665 130.634>
LayerCount: 2
Fore
SplineSet
80.1357421875 9.279296875 m 4x40
 73.384765625 12.54296875 64.8388671875 22.5107421875 61.14453125 31.4296875 c 4
 53.501953125 49.8798828125 55.796875 58.0244140625 120.4765625 242.012695312 c 4
 141.172851562 300.883789062 166.872070312 379.381835938 177.586914062 416.452148438 c 4
 188.30078125 453.522460938 201.276367188 488.50390625 206.421875 494.188476562 c 4
 220.33203125 509.559570312 251.649414062 505.220703125 265.986328125 485.935546875 c 6
 277.3046875 470.7109375 l 5
 264.598632812 426.782226562 l 6
 238.391601562 336.174804688 205.106445312 236.71875 154.91796875 99.0546875 c 4
 149.974609375 85.49609375 145.930664062 65.6533203125 145.930664062 54.9599609375 c 4
 145.930664062 40.982421875 141.301757812 30.888671875 129.462890625 19.0498046875 c 4
 112.172851562 1.759765625 100.48046875 -0.556640625 80.1357421875 9.279296875 c 4x40
230.120117188 41.1396484375 m 5
 202.576171875 63.4443359375 220.32421875 109.622070312 256.440429688 109.622070312 c 4
 293.334960938 109.622070312 311.302734375 67.708984375 285 43 c 4
 269.049804688 28.0146484375 247.2421875 27.275390625 230.120117188 41.138671875 c 5
 230.120117188 41.1396484375 l 5
39.2998046875 394.880859375 m 4
 32.8779296875 403.044921875 27.6240234375 414.111328125 27.6240234375 419.47265625 c 4
 27.6240234375 424.833984375 32.8779296875 435.900390625 39.2998046875 444.064453125 c 4
 61.658203125 472.48828125 108.373046875 456.499023438 108.373046875 420.423828125 c 4x80
 108.373046875 381.65625 62.9228515625 364.849609375 39.2998046875 394.880859375 c 4
EndSplineSet
Validated: 524321
EndChar

StartChar: ampersand
Encoding: 38 38 6
Width: 418
Flags: W
LayerCount: 2
Fore
SplineSet
274.028320312 7.826171875 m 5
 263.411132812 12.431640625 250.348632812 20.1591796875 245 25 c 4
 236.818359375 32.4052734375 231.326171875 32.8076171875 210.387695312 27.53515625 c 4
 172.56640625 18.01171875 118.826171875 19.9267578125 92.85546875 31.7236328125 c 4
 4.298828125 71.94921875 12.61328125 186.608398438 110.0859375 269.334960938 c 4
 163.641601562 314.788085938 161.224609375 310.850585938 161.623046875 353.284179688 c 4
 162.016601562 395.125 176.80078125 443.380859375 197.150390625 469.250976562 c 4
 224.186523438 503.622070312 283.056640625 510.057617188 325.309570312 483.26171875 c 4
 356.963867188 463.1875 370.469726562 438.997070312 370.661132812 402.032226562 c 4
 370.91796875 352.68359375 336.704101562 308.15625 275.448242188 278.11328125 c 4
 251.291992188 266.265625 246.086914062 261.174804688 246.254882812 249.557617188 c 4
 246.509765625 231.932617188 260.013671875 161.197265625 263.857421875 157.354492188 c 4
 265.416992188 155.793945312 280.266601562 171.46875 296.85546875 192.186523438 c 4
 329.80078125 233.3359375 346.884765625 240.741210938 371.563476562 224.5703125 c 4
 398.291015625 207.057617188 387.974609375 175.901367188 333.217773438 108.765625 c 6
 311.579101562 82.234375 l 5
 326.094726562 70.8154296875 l 6
 346.22265625 54.9833984375 346.157226562 26.4375 325.948242188 10.546875 c 4
 308.71484375 -3.0087890625 300.048828125 -3.462890625 274.021484375 7.826171875 c 5
 274.028320312 7.826171875 l 5
177.793945312 102.455078125 m 6
 194.362304688 105.76953125 l 5
 184.520507812 145.563476562 l 6
 179.108398438 167.450195312 173.098632812 192.522460938 171.166015625 201.279296875 c 4
 167.696289062 216.999023438 167.504882812 217.069335938 155.948242188 206.841796875 c 4
 134.963867188 188.268554688 112.553710938 147.793945312 112.553710938 128.465820312 c 4
 112.553710938 103.045898438 135.334960938 93.962890625 177.793945312 102.455078125 c 6
276.043945312 377.561523438 m 4
 293.543945312 398.359375 294.313476562 408.228515625 279.069335938 416.38671875 c 4
 263.959960938 424.47265625 253.6015625 415.903320312 246.176757812 389.172851562 c 4
 237.252929688 357.043945312 238.520507812 348.00390625 251.013671875 354.689453125 c 4
 256.801757812 357.787109375 268.065429688 368.080078125 276.043945312 377.561523438 c 4
EndSplineSet
Validated: 524321
EndChar

StartChar: quotesingle
Encoding: 39 39 7
Width: 121
Flags: W
VStem: 15.7705 87.3232<608.419 792.103>
LayerCount: 2
Fore
SplineSet
29.63671875 616.125976562 m 0
 16.3125 633.064453125 13.1279296875 658.337890625 15.7705078125 726.150390625 c 0
 17.8349609375 779.124023438 20.7451171875 787.797851562 39.291015625 796.248046875 c 0
 60.5634765625 805.940429688 86.361328125 796.177734375 96.13671875 774.713867188 c 0
 99.962890625 766.315429688 103.09375 729.088867188 103.09375 691.98828125 c 0
 103.09375 632.744140625 101.594726562 623.033203125 90.7763671875 612.215820312 c 0
 73.0546875 594.494140625 45.25390625 596.271484375 29.63671875 616.125976562 c 0
EndSplineSet
Validated: 524321
EndChar

StartChar: parenleft
Encoding: 40 40 8
Width: 208
Flags: W
LayerCount: 2
Fore
SplineSet
101.837890625 20.890625 m 4
 55.076171875 69.0400390625 25.966796875 165.059570312 25.4736328125 272.782226562 c 4
 24.953125 386.692382812 49.609375 469.635742188 100.357421875 524.690429688 c 4
 125.802734375 552.295898438 151.454101562 557.702148438 168.359375 539.021484375 c 4
 183.27734375 522.538085938 179.467773438 500.831054688 156.1015625 469.162109375 c 4
 144.258789062 453.110351562 131.689453125 432.411132812 128.168945312 423.163085938 c 4
 104.436523438 360.814453125 97.7666015625 252.623046875 113.1484375 179.501953125 c 4
 122.458007812 135.247070312 130.346679688 117.333984375 159.390625 74.4921875 c 4
 177.458984375 47.83984375 178.594726562 43.8720703125 172.42578125 28.9794921875 c 4
 165.92578125 13.28515625 146.475585938 0 130 0 c 4
 125.669921875 0 112.997070312 9.400390625 101.837890625 20.890625 c 4
EndSplineSet
Validated: 524321
EndChar

StartChar: parenright
Encoding: 41 41 9
Width: 214
Flags: W
LayerCount: 2
Fore
SplineSet
41.9951171875 10.1123046875 m 4
 27.0771484375 26.595703125 30.7392578125 50.78125 52.3515625 78.521484375 c 4
 89.4794921875 126.17578125 108.485351562 209.16015625 102.758789062 298.6015625 c 4
 97.490234375 380.846679688 78.544921875 436.306640625 43.017578125 473.465820312 c 4
 21.7294921875 495.731445312 22.736328125 521.532226562 45.5546875 538.495117188 c 6
 61.033203125 550 l 5
 81.498046875 539.041015625 l 6
 123.008789062 516.815429688 163.33203125 435.963867188 177.249023438 347.055664062 c 4
 185.868164062 291.998046875 180.220703125 190.165039062 165.71875 139.133789062 c 4
 142.845703125 58.6494140625 102.075195312 0 69 0 c 4
 58.7275390625 0 47.259765625 4.29296875 41.9951171875 10.1123046875 c 4
EndSplineSet
Validated: 524321
EndChar

StartChar: asterisk
Encoding: 42 42 10
Width: 265
Flags: W
LayerCount: 2
Fore
SplineSet
113.805664062 603.122070312 m 0
 109.393554688 604.897460938 101.508789062 614.615234375 96.2861328125 624.716796875 c 0
 88.3134765625 640.1328125 82.916015625 643.08203125 62.6806640625 643.08203125 c 0
 18.5341796875 643.08203125 2.3828125 681.889648438 36.142578125 706.849609375 c 0
 51.853515625 718.46484375 53.734375 722.787109375 48.7666015625 735.853515625 c 0
 38.484375 762.896484375 41.9267578125 780.998046875 59.54296875 792.541015625 c 0
 75.490234375 802.990234375 77.1748046875 802.87109375 101.462890625 789.567382812 c 2
 126.766601562 775.706054688 l 1
 148.163085938 788.9296875 l 2
 188.392578125 813.79296875 223.038085938 787.25 207.716796875 743.301757812 c 0
 201.62109375 725.814453125 202.098632812 721.717773438 210.795898438 716.849609375 c 0
 261.625976562 688.404296875 252.103515625 643.08203125 195.299804688 643.08203125 c 0
 175.735351562 643.08203125 167.744140625 640.182617188 164.854492188 632.036132812 c 0
 155.221679688 604.872070312 136.213867188 594.106445312 113.805664062 603.122070312 c 0
EndSplineSet
Validated: 524321
EndChar

StartChar: plus
Encoding: 43 43 11
Width: 316
Flags: W
HStem: 262.771 71.8164<25.2631 126.496 205.718 294.594>
VStem: 127.517 76.9463<161.108 262.771 334.587 445.774>
LayerCount: 2
Fore
SplineSet
139.854492188 160.70703125 m 2
 132.150390625 169.213867188 129.702148438 181.159179688 128.2890625 217.133789062 c 2
 126.49609375 262.770507812 l 1
 86.5361328125 262.770507812 l 2
 38.6201171875 262.770507812 23.2119140625 271.508789062 23.2119140625 298.678710938 c 0
 23.2119140625 325.940429688 38.5830078125 334.586914062 87.046875 334.586914062 c 2
 127.516601562 334.586914062 l 1
 127.516601562 375.383789062 l 2
 127.516601562 397.822265625 130.124023438 421.904296875 133.311523438 428.900390625 c 0
 141.375 446.595703125 162.939453125 454.91015625 180.28125 447.008789062 c 0
 197.827148438 439.014648438 204.462890625 418.510742188 204.462890625 372.294921875 c 2
 204.462890625 334.586914062 l 1
 240.37109375 334.586914062 l 2
 282.924804688 334.586914062 296.797851562 325.19921875 296.797851562 296.405273438 c 0
 296.797851562 271.239257812 282.461914062 262.770507812 239.857421875 262.770507812 c 2
 205.717773438 262.770507812 l 1
 203.520507812 216.825195312 l 2
 201.83203125 181.489257812 199.133789062 168.458007812 191.838867188 160.397460938 c 0
 179.180664062 146.41015625 152.658203125 146.567382812 139.853515625 160.706054688 c 1
 139.854492188 160.70703125 l 2
EndSplineSet
Validated: 524321
EndChar

StartChar: comma
Encoding: 44 44 12
Width: 136
Flags: W
VStem: 27.376 91.7783<-23.7979 37.5136 93.9966 139.701>
LayerCount: 2
Fore
SplineSet
30.1083984375 -35.92578125 m 0
 13.0859375 -18.904296875 12.7744140625 -12.5732421875 27.3759765625 19.6064453125 c 0
 39.9296875 47.2724609375 41.9306640625 73.32421875 33.2548828125 96.1455078125 c 0
 25.83984375 115.647460938 39.4013671875 143.37890625 58.724609375 148.228515625 c 0
 97.3212890625 157.916015625 119.205078125 127.653320312 119.154296875 64.6640625 c 0
 119.086914062 -23.1435546875 71.3017578125 -77.119140625 30.1083984375 -35.92578125 c 0
EndSplineSet
Validated: 524321
EndChar

StartChar: hyphen
Encoding: 45 45 13
Width: 328
Flags: W
HStem: 279.647 69.9951<43.9 294.093>
LayerCount: 2
Fore
SplineSet
43.578125 283.1875 m 1
 20.7685546875 292.66796875 16.1396484375 323.084960938 34.6845703125 341.629882812 c 0
 41.5 348.444335938 60.1884765625 349.642578125 159.719726562 349.642578125 c 0
 269.936523438 349.642578125 277.334960938 349.048828125 286.94921875 339.434570312 c 0
 300.291015625 326.092773438 300.041015625 302.80078125 286.423828125 290.463867188 c 0
 276.653320312 281.611328125 265.803710938 280.643554688 165.209960938 279.647460938 c 0
 104.444335938 279.045898438 49.708984375 280.638671875 43.5771484375 283.1875 c 1
 43.578125 283.1875 l 1
EndSplineSet
Validated: 524321
EndChar

StartChar: period
Encoding: 46 46 14
Width: 133
Flags: W
LayerCount: 2
Fore
SplineSet
53.796875 4.193359375 m 0
 37.0830078125 10.376953125 18.0048828125 35.408203125 18.0048828125 51.15625 c 0
 18.0048828125 57.1982421875 24.2421875 70.0712890625 31.8662109375 79.763671875 c 0
 67.962890625 125.653320312 139.46875 75.8271484375 111.776367188 24.08203125 c 0
 103.270507812 8.1904296875 71.9951171875 -2.5380859375 53.796875 4.193359375 c 0
EndSplineSet
Validated: 524321
EndChar

StartChar: slash
Encoding: 47 47 15
Width: 238
Flags: W
LayerCount: 2
Fore
SplineSet
36.353515625 14.603515625 m 4
 11.4521484375 36.0244140625 14.85546875 54.4501953125 78.6513671875 243.545898438 c 4
 120.983398438 369.022460938 140.313476562 436.71875 140.313476562 459.49609375 c 4
 140.313476562 495.169921875 183.357421875 515.122070312 207.732421875 490.747070312 c 4
 232.200195312 466.279296875 221.861328125 414.96484375 151.4296875 211.294921875 c 4
 135.657226562 165.6875 116.564453125 104.354492188 109 75 c 4
 90.5458984375 3.3798828125 69.623046875 -14.0146484375 36.353515625 14.603515625 c 4
EndSplineSet
Validated: 524321
EndChar

StartChar: zero
Encoding: 48 48 16
Width: 263
Flags: W
VStem: 170.259 78.1475<111.772 410.144>
LayerCount: 2
Fore
SplineSet
116 5 m 5
 82.5029296875 10.669921875 70.80078125 20.4658203125 51.2958984375 59.1591796875 c 4
 27.66796875 106.03515625 21.052734375 148.91015625 24.34375 233.861328125 c 4
 30.15625 383.935546875 60.806640625 484.600585938 100.924804688 485.37890625 c 4
 106.07421875 485.487304688 115.27734375 489.334960938 121.376953125 493.947265625 c 4
 151.134765625 516.456054688 205.40234375 493.485351562 226.775390625 449.33203125 c 4
 246.946289062 407.666015625 251.696289062 364.734375 248.40625 253.854492188 c 4
 245.235351562 147.015625 238.388671875 105.96484375 216.038085938 59.7958984375 c 4
 203.284179688 33.4501953125 175.266601562 5.375 161.7265625 5.375 c 4
 157.512695312 5.375 150.640625 4.4208984375 146.456054688 3.2529296875 c 4
 142.272460938 2.0869140625 128.56640625 2.8720703125 116 4.9990234375 c 6
 116 5 l 5
144.743164062 102.833984375 m 5
 158.823242188 130.0625 170.25 207.713867188 170.258789062 276.235351562 c 4
 170.258789062 339.583984375 161.268554688 410.939453125 153.2734375 410.939453125 c 4
 150.85546875 410.939453125 147.282226562 400.96484375 145.333007812 388.775390625 c 4
 143.010742188 374.25 137.069335938 363.518554688 128.094726562 357.637695312 c 4
 115.904296875 349.650390625 113.92578125 342.8359375 110.072265625 295.547851562 c 4
 103.016601562 208.981445312 102.790039062 187.086914062 108.576171875 151.27734375 c 4
 113.557617188 120.454101562 126.634765625 85.345703125 133.135742188 85.345703125 c 4
 134.544921875 85.345703125 139.767578125 93.21484375 144.7421875 102.833984375 c 6
 144.743164062 102.833984375 l 5
EndSplineSet
Validated: 524321
EndChar

StartChar: one
Encoding: 49 49 17
Width: 224
Flags: W
VStem: 95.3613 92.1152<27.2285 111.984 248.999 249.258 386.152 461.226>
LayerCount: 2
Fore
SplineSet
127.853515625 9.146484375 m 5
 103.977539062 39.298828125 93.228515625 97.9765625 95.361328125 186.508789062 c 4
 96.916015625 251.002929688 96.701171875 252.25390625 84.6953125 249.114257812 c 4
 70.0712890625 245.290039062 42.3056640625 258.465820312 37.2548828125 271.625976562 c 4
 28.1845703125 295.265625 31.9267578125 304.984375 97.0078125 426.8359375 c 4
 135.69140625 499.262695312 145.87890625 508.759765625 174.275390625 498.860351562 c 4
 205.799804688 487.87109375 206.53125 478.6171875 187.673828125 329.31640625 c 4
 175.779296875 235.149414062 175.682617188 104.142578125 187.4765625 70.7216796875 c 4
 197.1875 43.2158203125 195.237304688 25.23828125 181 11 c 4
 170.130859375 0.1318359375 135.930664062 -1.060546875 127.848632812 9.1455078125 c 5
 127.853515625 9.146484375 l 5
EndSplineSet
Validated: 524321
EndChar

StartChar: two
Encoding: 50 50 18
Width: 283
Flags: W
HStem: 350.825 21G<93.5117 111.605>
LayerCount: 2
Fore
SplineSet
44.7509765625 16.8349609375 m 4
 17.380859375 44.205078125 26.8076171875 78.6630859375 120.5703125 293.924804688 c 4
 159.403320312 383.077148438 169.356445312 418.447265625 144.12109375 377.615234375 c 4
 130.932617188 356.27734375 122.166992188 350.825195312 101.043945312 350.825195312 c 4
 85.9794921875 350.825195312 64.6357421875 374.717773438 64.6357421875 391.584960938 c 4
 64.6357421875 408.944335938 84.9453125 437.744140625 114.833984375 462.767578125 c 4
 173.950195312 512.262695312 226.145507812 515.224609375 249.077148438 470.384765625 c 4
 264.705078125 439.826171875 250.815429688 392.07421875 176.9609375 222.577148438 c 4
 154.965820312 172.09375 138.127929688 129.629882812 139.543945312 128.212890625 c 4
 140.963867188 126.796875 149.802734375 129.610351562 159.189453125 134.46484375 c 4
 185.224609375 147.927734375 201.479492188 145.224609375 228.169921875 122.994140625 c 4
 257.989257812 98.1552734375 260.7578125 94.056640625 260.865234375 74.58203125 c 4
 261.077148438 42.88671875 222.204101562 26.50390625 186 43 c 4
 173.842773438 48.5390625 168.413085938 46.5556640625 139.951171875 26.173828125 c 4
 100.015625 -2.4228515625 67.224609375 -5.6396484375 44.7509765625 16.8349609375 c 4
EndSplineSet
Validated: 524321
EndChar

StartChar: three
Encoding: 51 51 19
Width: 320
Flags: W
LayerCount: 2
Fore
SplineSet
77.9091796875 9.3154296875 m 5
 50.75390625 24.205078125 36.607421875 39.775390625 26.7265625 65.6474609375 c 4
 15.609375 94.7548828125 19.484375 115.001953125 38.560546875 127.501953125 c 4
 58.822265625 140.77734375 78.1513671875 133.6171875 95.275390625 106.490234375 c 4
 108.883789062 84.9326171875 111.153320312 83.640625 130.021484375 86.7021484375 c 4
 176.452148438 94.2373046875 214.889648438 147.3359375 220 211 c 4
 222.536132812 242.596679688 221.556640625 248.259765625 212.979492188 251.55078125 c 4
 207.497070312 253.654296875 199.911132812 253.07421875 196.123046875 250.259765625 c 4
 166.565429688 228.301757812 158.39453125 224.505859375 146.89453125 227.393554688 c 4
 126.451171875 232.526367188 114.8828125 243.918945312 111.234375 262.512695312 c 4
 108.287109375 277.528320312 111.521484375 284.125 135.077148438 311.16015625 c 4
 160.716796875 340.584960938 201.672851562 410.288085938 196.413085938 415.547851562 c 4
 195.091796875 416.868164062 188.220703125 413.890625 181.140625 408.931640625 c 4
 141.728515625 381.326171875 88.3388671875 431.604492188 116.365234375 469.932617188 c 4
 126.31640625 483.541015625 173.861328125 501.2109375 200.543945312 501.216796875 c 4
 229.96484375 501.220703125 262.127929688 483.443359375 274.603515625 460.27734375 c 4
 287.586914062 436.16796875 284.665039062 408.779296875 264.377929688 364.426757812 c 6
 249.670898438 332.2734375 l 5
 271.81640625 310.127929688 l 6
 297.982421875 283.961914062 302.974609375 264.19140625 298.705078125 203.64453125 c 4
 294.647460938 146.109375 278.266601562 105.188476562 243.821289062 66.5419921875 c 4
 196.372070312 13.3056640625 119.186523438 -13.3173828125 77.9091796875 9.3154296875 c 5
EndSplineSet
Validated: 524321
EndChar

StartChar: four
Encoding: 52 52 20
Width: 319
Flags: W
HStem: 188.554 89.0361<157.099 190.01>
VStem: 108.083 81.7158<343.947 495.133>
LayerCount: 2
Fore
SplineSet
199.75390625 13.013671875 m 5
 183.947265625 25.447265625 l 5
 187 107 l 5
 190.052734375 188.553710938 l 5
 173.375 188.553710938 l 6
 164.202148438 188.553710938 147.853515625 192.248046875 137.046875 196.763671875 c 4
 118.033203125 204.708007812 116.85546875 204.431640625 100.643554688 188.21875 c 4
 79.71484375 167.291015625 58.89453125 166.583984375 39.3408203125 186.139648438 c 4
 27.0302734375 198.450195312 25.154296875 204.446289062 27.6943359375 223.377929688 c 4
 29.3583984375 235.788085938 37.564453125 254.916015625 45.9306640625 265.8828125 c 4
 81.466796875 312.474609375 114.448242188 410.154296875 108.083007812 449.9609375 c 4
 104.991210938 469.291992188 106.584960938 474.666015625 119.115234375 487.197265625 c 4
 137.87890625 505.9609375 159.19921875 505.918945312 178.036132812 487.088867188 c 4
 192.005859375 473.119140625 192.634765625 469.990234375 189.798828125 428.604492188 c 4
 187.985351562 402.1640625 179.991210938 364.653320312 169.57421875 333.713867188 c 4
 160.098632812 305.572265625 154.484375 280.317382812 157.098632812 277.58984375 c 4
 159.768554688 274.8046875 171.721679688 277.299804688 184.37890625 283.286132812 c 6
 206.905273438 293.940429688 l 5
 214.125976562 373.685546875 l 6
 218.09765625 417.545898438 223.498046875 459.245117188 226.126953125 466.350585938 c 4
 231.5859375 481.1015625 255.998046875 492.365234375 271.704101562 487.380859375 c 4
 304.634765625 476.928710938 306.217773438 452.680664062 285.26171875 279.700195312 c 4
 277.481445312 215.475585938 269.57421875 137.296875 267.690429688 105.967773438 c 4
 263.453125 35.4990234375 257.70703125 15.5458984375 239.223632812 7.125 c 4
 219.985351562 -1.640625 218.022460938 -1.34765625 199.75390625 13.0224609375 c 5
 199.75390625 13.013671875 l 5
EndSplineSet
Validated: 524321
EndChar

StartChar: five
Encoding: 53 53 21
Width: 344
Flags: W
HStem: 417.788 83.375<157.679 321.744>
VStem: 35.4277 82.9775<83.2551 195.206>
LayerCount: 2
Fore
SplineSet
111.24609375 4.1669921875 m 6
 70.9033203125 16.66796875 35.427734375 76.8935546875 35.427734375 132.877929688 c 4
 35.427734375 191.868164062 73.1181640625 223.489257812 105.1953125 191.412109375 c 4
 116.765625 179.841796875 118.643554688 172.782226562 118.405273438 141.747070312 c 4
 118.125 105.342773438 125.30859375 82.1953125 136.885742188 82.1953125 c 4
 148.94921875 82.1953125 181.778320312 111.803710938 197.9921875 137.306640625 c 4
 216.176757812 165.911132812 239.1640625 234.658203125 233.5703125 243.708984375 c 4
 228.337890625 252.17578125 191.08984375 250.8125 163.708984375 241.15234375 c 4
 131.528320312 229.797851562 111.60546875 230.639648438 99.6435546875 243.857421875 c 4
 91.84765625 252.471679688 87.8505859375 273.83203125 81.640625 340.069335938 c 4
 76.3662109375 396.321289062 70.95703125 428.1953125 65.697265625 434.012695312 c 4
 54.7099609375 446.166992188 55.71484375 474.678710938 67.498046875 485.086914062 c 4
 76.5771484375 493.106445312 125.640625 496.538085938 297.377929688 501.163085938 c 4
 328.984375 502.014648438 341.799804688 456.801757812 316.657226562 433.15234375 c 4
 303.223632812 420.517578125 297.540039062 419.509765625 229.979492188 417.788085938 c 6
 157.678710938 415.946289062 l 5
 159.299804688 373.168945312 l 5
 160.920898438 330.391601562 l 5
 204.733398438 331.8125 l 6
 257.1875 333.512695312 283.841796875 321.713867188 302.48828125 288.538085938 c 4
 340.265625 221.321289062 276.204101562 68.607421875 189 18 c 4
 162.125 2.4033203125 133.418945312 -2.7041015625 111.24609375 4.1669921875 c 6
EndSplineSet
Validated: 524321
EndChar

StartChar: six
Encoding: 54 54 22
Width: 328
Flags: W
HStem: 416.28 84.4609<195.95 237.852>
VStem: 20.1006 78.9111<107.506 212.138>
LayerCount: 2
Fore
SplineSet
126.39453125 7.375 m 5
 55.0244140625 32.880859375 20.0166015625 91.4150390625 20.1005859375 185.106445312 c 4
 20.185546875 283.12890625 72.404296875 391.970703125 157.342773438 471.1796875 c 4
 178.33984375 490.760742188 193.870117188 500.741210938 203.34375 500.741210938 c 4
 220.654296875 500.741210938 245.286132812 477.579101562 245.286132812 461.301757812 c 4
 245.286132812 446.016601562 229.884765625 416.280273438 221.967773438 416.280273438 c 4
 212.135742188 416.280273438 165.25 363.942382812 145.614257812 331.048828125 c 4
 116.5 282.27734375 116.598632812 280.23828125 147.321289062 295.791992188 c 4
 208.81640625 326.924804688 278.0546875 301.91796875 305.021484375 238.8359375 c 4
 327.811523438 185.525390625 308.732421875 81.796875 269 43 c 4
 230.7578125 5.6572265625 172.1640625 -8.98046875 126.395507812 7.375 c 5
 126.39453125 7.375 l 5
212.76953125 101.333007812 m 4
 231.782226562 124.41015625 240.590820312 185.153320312 228.264648438 208.184570312 c 4
 217.180664062 228.896484375 201.686523438 232.357421875 177.193359375 219.590820312 c 4
 150.931640625 205.90234375 125.6015625 204.555664062 115.831054688 216.328125 c 4
 104.143554688 230.41015625 98.8818359375 220.196289062 99.01171875 183.680664062 c 4
 99.1396484375 147.624023438 111.803710938 110.247070312 128.603515625 96.3466796875 c 4
 152.3359375 76.708984375 194.541992188 79.2099609375 212.76953125 101.333007812 c 4
EndSplineSet
Validated: 524321
EndChar

StartChar: seven
Encoding: 55 55 23
Width: 336
Flags: W
HStem: 148.587 86.4619<44.0842 108.275> 177.064 80.2861<224.669 305.783> 465.026 20G<223.886 282.841> 465.026 20G<223.886 282.841>
LayerCount: 2
Fore
SplineSet
103 11 m 5x60
 91.8876953125 20.00390625 90.2333984375 25.734375 91.3251953125 51.4384765625 c 4
 92.0302734375 67.9111328125 96.1259765625 96.5078125 100.435546875 114.987304688 c 6
 108.275390625 148.586914062 l 5
 87.5634765625 148.586914062 l 6
 43.9697265625 148.586914062 23.14453125 188.612304688 49.3837890625 221.969726562 c 4
 59.9541015625 235.40625 63.5517578125 236.393554688 97.0439453125 235.048828125 c 6x80
 133.2734375 233.59375 l 5
 153.166015625 291.540039062 l 6
 164.108398438 323.41015625 177.192382812 359.8125 182.241210938 372.43359375 c 6
 191.423828125 395.380859375 l 5
 141.93359375 395.380859375 l 6
 83.119140625 395.380859375 58.8671875 403.748046875 46.0966796875 428.4453125 c 4
 21.9052734375 475.223632812 82.001953125 526.233398438 113.750976562 485.872070312 c 4
 126.438476562 469.7421875 149.619140625 468.208984375 223.885742188 478.586914062 c 6
 269.96875 485.026367188 l 5
 282.840820312 470.061523438 l 6
 297.880859375 452.577148438 298.768554688 443.553710938 287.403320312 423.6484375 c 4
 279.169921875 409.23046875 224.4296875 266.358398438 224.40625 259.232421875 c 4
 224.40625 257.197265625 240.240234375 256.349609375 259.606445312 257.350585938 c 4
 289.432617188 258.890625 296.563476562 257.413085938 306.234375 247.752929688 c 4
 312.512695312 241.473632812 317.651367188 229.362304688 317.651367188 220.83984375 c 4
 317.651367188 195.755859375 299.104492188 184.28125 246.8984375 177.064453125 c 4
 221.555664062 173.561523438 199.661132812 169.533203125 198.241210938 168.11328125 c 4
 189.422851562 159.293945312 175.294921875 88.2880859375 178.306640625 67.921875 c 4
 185.788085938 17.345703125 138.905273438 -18.08984375 103 11.0009765625 c 5
 103 11 l 5x60
EndSplineSet
Validated: 524321
EndChar

StartChar: eight
Encoding: 56 56 24
Width: 388
Flags: W
HStem: 329.37 20G<226.957 236.225> 400.491 97.2256<150.48 263.566>
LayerCount: 2
Fore
SplineSet
116.831054688 11.400390625 m 4
 58.86328125 39.1103515625 27.560546875 85.9013671875 32.267578125 137.806640625 c 4
 35.1455078125 169.541015625 59.3818359375 230.427734375 81.501953125 261.493164062 c 6
 93.70703125 278.634765625 l 5
 81.2919921875 303.495117188 l 6
 51.4541015625 363.239257812 72.0107421875 438.075195312 130.51953125 482.701171875 c 4
 154.439453125 500.9453125 154.708007812 501.000976562 202.9609375 497.716796875 c 4
 260.837890625 493.77734375 303.786132812 475.52734375 328.393554688 444.418945312 c 4
 356.671875 408.66796875 349.301757812 350.533203125 311.345703125 309.952148438 c 6
 297.1796875 294.806640625 l 5
 318.110351562 271.638671875 l 6
 363.629882812 221.254882812 378.720703125 152.2109375 355.252929688 101.7109375 c 4
 330.692382812 48.8603515625 255.4453125 3.90625 185 0 c 4
 151.561523438 -1.853515625 140.787109375 -0.0634765625 116.831054688 11.400390625 c 4
234.639648438 94.7197265625 m 4
 285.213867188 119.723632812 297.440429688 147.860351562 276.514648438 191.0859375 c 4
 263.3203125 218.341796875 231.703125 244.120117188 211.467773438 244.120117188 c 4
 204.755859375 244.120117188 187.634765625 239.134765625 173.419921875 233.041992188 c 4
 150.568359375 223.24609375 145.622070312 217.7890625 130.708984375 185.919921875 c 4
 109.776367188 141.189453125 108.586914062 119.967773438 125.973632812 101.4609375 c 4
 150.66015625 75.18359375 190.168945312 72.732421875 234.639648438 94.7197265625 c 4
236.224609375 349.369140625 m 5
 270.838867188 374.015625 274.034179688 395.099609375 245.229492188 408.768554688 c 4
 226.608398438 417.60546875 223.356445312 417.65234375 201.760742188 409.40625 c 4
 188.923828125 404.502929688 174.193359375 400.491210938 169.029296875 400.491210938 c 4
 150.154296875 400.491210938 139.23046875 350.1484375 156.0625 340.734375 c 4
 172.85546875 331.340820312 217.688476562 336.170898438 236.224609375 349.370117188 c 5
 236.224609375 349.369140625 l 5
EndSplineSet
Validated: 524321
EndChar

StartChar: nine
Encoding: 57 57 25
Width: 292
Flags: W
LayerCount: 2
Fore
SplineSet
169.03515625 17.0673828125 m 4
 157.602539062 31.400390625 157.0546875 36.1728515625 160.263671875 93.5087890625 c 4
 162.145507812 127.143554688 167.217773438 175.926757812 171.53515625 201.91796875 c 4
 175.8515625 227.908203125 178.713867188 249.868164062 177.895507812 250.717773438 c 4
 177.075195312 251.569335938 169.640625 249.692382812 161.374023438 246.548828125 c 4
 137.471679688 237.4609375 101.534179688 239.823242188 81.939453125 251.771484375 c 4
 50.1083984375 271.1796875 19.19921875 335.58203125 19.19921875 382.497070312 c 4
 19.19921875 414.19140625 42.21875 458.575195312 65.0439453125 470.889648438 c 4
 74.9921875 476.2578125 91.888671875 485.477539062 102.590820312 491.37890625 c 4
 139.36328125 511.65625 201.23828125 501.26171875 234.657226562 469.193359375 c 4
 241.553710938 462.575195312 253.645507812 444.43359375 261.52734375 428.87890625 c 4
 275.73828125 400.8359375 275.803710938 400.099609375 269.309570312 341.563476562 c 4
 265.70703125 309.094726562 257.91796875 248.001953125 252 205.801757812 c 4
 246.08203125 163.6015625 239.661132812 105.032226562 237.731445312 75.6474609375 c 4
 235.024414062 34.443359375 231.883789062 19.8837890625 224 12 c 4
 208.58203125 -3.41796875 183.533203125 -1.109375 169.03515625 17.0673828125 c 4
163.461914062 344.209960938 m 4
 183.002929688 366.465820312 191.091796875 399.409179688 179.7421875 410.51171875 c 4
 162.802734375 427.081054688 143.919921875 426.07421875 122.732421875 407.470703125 c 4
 99.1806640625 386.791015625 96.306640625 365.174804688 113.38671875 337.1640625 c 4
 126.610351562 315.477539062 139.872070312 317.342773438 163.461914062 344.209960938 c 4
EndSplineSet
Validated: 524321
EndChar

StartChar: colon
Encoding: 58 58 26
Width: 136
Flags: W
LayerCount: 2
Fore
SplineSet
48.26953125 12.9765625 m 5
 35.45703125 29.2646484375 35.2802734375 44.40625 47.7470703125 57.7861328125 c 4
 65.8994140625 77.2705078125 89.203125 75.98828125 105.624023438 54.6015625 c 4
 121.59765625 33.7958984375 102.642578125 0 75 0 c 4
 63.0166015625 0 55.673828125 3.564453125 48.2705078125 12.9765625 c 6
 48.26953125 12.9765625 l 5
46.4677734375 236.4765625 m 4
 36.6630859375 244.188476562 33.1376953125 251.375 33.1376953125 263.649414062 c 4
 33.1376953125 296.297851562 69.6142578125 312.189453125 91.3779296875 289.022460938 c 4
 121.005859375 257.485351562 80.302734375 209.862304688 46.4677734375 236.4765625 c 4
EndSplineSet
Validated: 524321
EndChar

StartChar: semicolon
Encoding: 59 59 27
Width: 148
Flags: W
HStem: 279.117 70.5254<72.0254 102.333>
VStem: 42.3262 79.0889<-35.8358 123.917>
LayerCount: 2
Fore
SplineSet
42.75390625 -37.345703125 m 1
 29.943359375 -21.060546875 29.8408203125 -10.6494140625 42.326171875 5.2314453125 c 0
 56.7880859375 23.6162109375 64.623046875 65.0654296875 57.0791015625 83.2783203125 c 0
 49.330078125 101.983398438 58.3857421875 126.288085938 74.6103515625 130.361328125 c 0
 123.630859375 142.665039062 145.44921875 85.4560546875 121.415039062 7.6396484375 c 0
 109.455078125 -31.0810546875 92.1123046875 -50.357421875 69.2333984375 -50.357421875 c 0
 57.55859375 -50.357421875 50.1005859375 -46.693359375 42.7470703125 -37.345703125 c 1
 42.75390625 -37.345703125 l 1
72.025390625 279.12109375 m 1
 55.70703125 285.01171875 47.3330078125 297.206054688 47.3330078125 315.07421875 c 0
 47.3330078125 337.301757812 59.373046875 349.642578125 81.0556640625 349.642578125 c 0
 123.311523438 349.642578125 130.295898438 289.909179688 89.30859375 279.060546875 c 0
 83.8779296875 277.623046875 76.0986328125 277.649414062 72.025390625 279.1171875 c 2
 72.025390625 279.12109375 l 1
EndSplineSet
Validated: 524321
EndChar

StartChar: less
Encoding: 60 60 28
Width: 360
Flags: W
HStem: 150.009 98.0078<245.994 296.479> 430.004 20G<292.632 312.389>
LayerCount: 2
Fore
SplineSet
170.198242188 208.649414062 m 0
 107.227539062 240.775390625 50.5537109375 270.547851562 44.2568359375 274.80859375 c 0
 32.564453125 282.720703125 28.5390625 308.1953125 36.900390625 321.354492188 c 0
 42.8017578125 330.641601562 286.1171875 450.00390625 299.147460938 450.00390625 c 0
 325.629882812 450.00390625 340.421875 424.297851562 329.827148438 396.6875 c 0
 328.063476562 392.094726562 287.671875 368.834960938 240.064453125 345.000976562 c 2
 153.506835938 301.665039062 l 1
 170.756835938 291.14453125 l 2
 180.245117188 285.357421875 217.776367188 265.950195312 254.159179688 248.016601562 c 0
 290.54296875 230.083007812 323.5546875 212.201171875 327.51953125 208.279296875 c 0
 347.383789062 188.630859375 327.63671875 149.502929688 298.120117188 150.008789062 c 0
 290.733398438 150.143554688 233.168945312 176.5234375 170.198242188 208.649414062 c 0
EndSplineSet
Validated: 524321
EndChar

StartChar: equal
Encoding: 61 61 29
Width: 432
Flags: W
HStem: 153.26 67.6592<41.0611 391.48> 378.732 71.2715<41.1789 390.648>
LayerCount: 2
Fore
SplineSet
63.33203125 153.259765625 m 4
 37.974609375 162.583984375 28.8857421875 195.9296875 47.1884765625 212.493164062 c 4
 55.431640625 219.954101562 74.6689453125 220.918945312 215.18359375 220.918945312 c 4
 367.08203125 220.918945312 374.305664062 220.486328125 384.05078125 210.737304688 c 4
 401.358398438 193.4296875 396.559570312 169.017578125 373.505859375 157.095703125 c 4
 361.801757812 151.04296875 332.107421875 149.723632812 215.036132812 150.049804688 c 4
 135.798828125 150.268554688 67.5322265625 151.715820312 63.33203125 153.259765625 c 4
49.01953125 389.11328125 m 4
 42.46875 395.215820312 37.8779296875 405.62109375 37.8779296875 414.368164062 c 4
 37.8779296875 423.115234375 42.46875 433.520507812 49.01953125 439.624023438 c 4
 59.7216796875 449.594726562 66.2197265625 450.00390625 213.783203125 450.00390625 c 4
 361.491210938 450.00390625 367.922851562 449.595703125 380.819335938 439.452148438 c 4
 389.713867188 432.456054688 394.232421875 424.005859375 394.232421875 414.368164062 c 4
 394.232421875 404.73046875 389.713867188 396.280273438 380.819335938 389.284179688 c 4
 367.922851562 379.138671875 361.491210938 378.732421875 213.783203125 378.732421875 c 4
 66.2197265625 378.732421875 59.7216796875 379.140625 49.01953125 389.11328125 c 4
EndSplineSet
Validated: 524321
EndChar

StartChar: greater
Encoding: 62 62 30
Width: 380
Flags: W
HStem: 150.642 299.362
LayerCount: 2
Fore
SplineSet
60.98046875 154.021484375 m 0
 44.345703125 162.391601562 37.0966796875 183.392578125 44.9169921875 200.557617188 c 0
 49.5673828125 210.763671875 70.228515625 222.958007812 137.534179688 255.220703125 c 2
 224.166015625 296.748046875 l 1
 191.67578125 314.916015625 l 2
 173.807617188 324.908203125 135.370117188 344.6875 106.26171875 358.870117188 c 0
 49.25 386.647460938 40.7353515625 393.973632812 40.7353515625 415.247070312 c 0
 40.7353515625 429.931640625 60.6484375 449.875976562 75.4384765625 450.00390625 c 0
 79.916015625 450.060546875 139.469726562 422.256835938 207.780273438 388.2578125 c 0
 308.6796875 338.038085938 333.13671875 323.859375 338.143554688 312.677734375 c 0
 351.55078125 282.737304688 347.448242188 279.452148438 215.2421875 214.247070312 c 0
 147.567382812 180.868164062 87.990234375 152.247070312 82.84765625 150.641601562 c 0
 77.7060546875 149.038085938 67.8662109375 150.565429688 60.98046875 154.021484375 c 0
EndSplineSet
Validated: 524321
EndChar

StartChar: question
Encoding: 63 63 31
Width: 312
Flags: W
HStem: 481.056 20G<188.707 228.188>
VStem: 42.1543 67.8447<289.287 368.696>
LayerCount: 2
Fore
SplineSet
157.909179688 3.693359375 m 4
 133.978515625 13.2333984375 127.7265625 42.8779296875 145.600585938 62.0634765625 c 4
 168.186523438 86.306640625 210.274414062 69.921875 210.274414062 36.8857421875 c 4
 210.274414062 11.998046875 182.013671875 -5.916015625 157.909179688 3.693359375 c 4
128.752929688 116.737304688 m 5
 100.454101562 145.037109375 104.091796875 162.359375 169.723632812 311.807617188 c 4
 220.37109375 427.135742188 220.688476562 432.845703125 174.963867188 406.049804688 c 4
 141.450195312 386.409179688 120.025390625 359.7734375 109.999023438 325.284179688 c 4
 98.384765625 285.33203125 74.318359375 273.23828125 48.3212890625 294.290039062 c 4
 30.9267578125 308.375 28.3662109375 341.0546875 42.154296875 373.000976562 c 4
 68.6728515625 434.44140625 159.896484375 501.055664062 217.516601562 501.055664062 c 4
 238.858398438 501.055664062 246.075195312 498.12109375 263.073242188 482.533203125 c 6
 283.26953125 464.01171875 l 5
 283 419 l 6
 282.736328125 375.147460938 281.780273438 371.90234375 245.823242188 292.883789062 c 4
 195.8046875 182.962890625 193.467773438 175.919921875 202.7890625 163.172851562 c 4
 214.594726562 147.028320312 212.247070312 119.1484375 198.256835938 109.349609375 c 4
 178.06640625 95.20703125 146.978515625 98.51171875 128.752929688 116.737304688 c 5
EndSplineSet
Validated: 524321
EndChar

StartChar: at
Encoding: 64 64 32
Width: 547
Flags: W
HStem: 338.301 20G<270.129 295.755>
LayerCount: 2
Fore
SplineSet
190.142578125 -75.845703125 m 1
 78.41796875 -57.033203125 11.3115234375 18.916015625 11.3115234375 126.549804688 c 0
 11.3115234375 257.775390625 104.690429688 393.561523438 241.815429688 461.731445312 c 0
 374.874023438 527.879882812 472.923828125 507.06640625 521.220703125 402.418945312 c 0
 531.436523438 380.283203125 532.98046875 368.280273438 532.685546875 313.280273438 c 0
 532.37890625 256.220703125 530.682617188 245.076171875 516.0859375 204.299804688 c 0
 507.143554688 179.318359375 496.1875 151.909179688 491.740234375 143.389648438 c 0
 468.243164062 98.3759765625 410.861328125 72.1953125 369.862304688 87.783203125 c 0
 358.978515625 91.9208984375 355.87890625 90.6650390625 350.036132812 79.7470703125 c 0
 334.268554688 50.2861328125 303.359375 36.65234375 258.91015625 39.5537109375 c 0
 236.153320312 41.0390625 195.131835938 84.451171875 181.497070312 121.477539062 c 0
 165.360351562 165.299804688 165.658203125 231.280273438 182.127929688 261.135742188 c 0
 207.259765625 306.698242188 215.86328125 319.201171875 235.31640625 338.439453125 c 0
 253.138671875 356.0625 258.385742188 358.30078125 281.873046875 358.30078125 c 0
 309.637695312 358.30078125 341.123046875 345.655273438 356.298828125 328.409179688 c 0
 380.610351562 300.780273438 389.859375 271.927734375 390.86328125 220.58984375 c 0
 391.404296875 192.915039062 392.032226562 168.484375 392.256835938 166.299804688 c 0
 392.484375 164.115234375 397.239257812 162.327148438 402.828125 162.327148438 c 0
 415.71875 162.327148438 430.5859375 186.82421875 444.618164062 231.182617188 c 0
 469.2734375 309.123046875 464.185546875 367.478515625 429.729492188 401.93359375 c 0
 411.51171875 420.151367188 407.298828125 421.860351562 380.606445312 421.860351562 c 0
 276.6796875 421.860351562 154.168945312 330.52734375 107.080078125 217.94140625 c 0
 57.359375 99.0634765625 103.045898438 6.48828125 214.98046875 -0.6953125 c 0
 264.33203125 -3.8623046875 308.021484375 7.267578125 370.5546875 38.9345703125 c 0
 417.504882812 62.7119140625 420.643554688 63.556640625 434.043945312 56.03515625 c 0
 452.147460938 45.8740234375 460.134765625 24.166015625 452.1875 6.724609375 c 0
 440.216796875 -19.548828125 341.770507812 -64.140625 270.041992188 -75.7802734375 c 0
 232.506835938 -81.8701171875 225.955078125 -81.8759765625 190.142578125 -75.8408203125 c 1
 190.142578125 -75.845703125 l 1
296.13671875 141.8125 m 1
 320.911132812 191.217773438 321.67578125 254.168945312 297.764648438 275.80859375 c 0
 288.004882812 284.640625 287.215820312 284.504882812 279.5625 272.677734375 c 0
 269.188476562 256.647460938 266.380859375 243.849609375 260.578125 186.162109375 c 0
 256.642578125 147.043945312 257.194335938 136.295898438 263.651367188 126.24609375 c 0
 274.284179688 109.697265625 281.849609375 113.322265625 296.135742188 141.8125 c 1
 296.13671875 141.8125 l 1
EndSplineSet
Validated: 524321
EndChar

StartChar: A
Encoding: 65 65 33
Width: 480
Flags: W
HStem: 151.454 79.7959<182.843 265.659>
LayerCount: 2
Fore
SplineSet
394 5 m 4
 377.901367188 11.6884765625 347.583984375 53.6171875 321.359375 105.458007812 c 6
 297.162109375 153.29296875 l 5
 231.478515625 151.454101562 l 6
 195.3515625 150.443359375 164.140625 147.961914062 162.119140625 145.939453125 c 4
 160.09765625 143.91796875 154.633789062 127.450195312 149.9765625 109.344726562 c 4
 145.318359375 91.2392578125 135.994140625 68.154296875 129.255859375 58.044921875 c 4
 116.4609375 38.8515625 79.6015625 17.3115234375 59.5498046875 17.3115234375 c 4
 43.6025390625 17.3115234375 25.3388671875 33.845703125 20.9951171875 52.2158203125 c 4
 17.400390625 67.416015625 20.76953125 72.09765625 57.4111328125 102.819335938 c 4
 63.1015625 107.58984375 75.51953125 144.552734375 88.361328125 194.9453125 c 4
 106.319335938 265.4140625 134.051757812 365.004882812 153.516601562 428.921875 c 4
 173.750976562 495.369140625 224.4296875 523.172851562 256.291992188 485.306640625 c 4
 263.965820312 476.1875 284.10546875 427.662109375 302.440429688 374.115234375 c 4
 364.314453125 193.41796875 399.533203125 114.900390625 435.498046875 77.470703125 c 4
 459.633789062 52.353515625 462.953125 36.24609375 447.763671875 17.9521484375 c 4
 436.947265625 4.923828125 409.87890625 -1.5966796875 394 5 c 4
257.938476562 256.901367188 m 6
 247.166992188 292.694335938 219.845703125 366.959960938 218.135742188 365.096679688 c 4
 216.454101562 363.264648438 181.748046875 238.375976562 181.748046875 234.157226562 c 4
 181.748046875 232.559570312 200.627929688 231.25 223.704101562 231.25 c 6
 265.659179688 231.25 l 5
 257.938476562 256.901367188 l 6
EndSplineSet
Validated: 524321
EndChar

StartChar: B
Encoding: 66 66 34
Width: 352
Flags: W
LayerCount: 2
Fore
SplineSet
112.75390625 14.2197265625 m 5
 77.908203125 31.7421875 47.4560546875 68.3662109375 36.556640625 105.856445312 c 4
 26.478515625 140.52734375 29.697265625 161.424804688 46.98046875 173.53125 c 4
 62.681640625 184.528320312 79.17578125 184.16796875 95.888671875 172.462890625 c 6
 109.411132812 162.991210938 l 5
 105.365234375 242.170898438 l 6
 103.139648438 285.720703125 97.6455078125 332.260742188 93.15625 345.59375 c 4
 86.029296875 366.759765625 86.0595703125 372.897460938 93.3974609375 393.961914062 c 4
 98.0205078125 407.232421875 101.83984375 427.408203125 101.885742188 438.797851562 c 4
 102.015625 469.7734375 117.962890625 486.217773438 146.7734375 485.068359375 c 4
 159.616210938 484.556640625 177.196289062 487.826171875 185.837890625 492.333984375 c 4
 212.474609375 506.228515625 236.315429688 502.791992188 259.280273438 481.74609375 c 4
 284.34765625 458.774414062 291.90234375 424.36328125 283.301757812 372.337890625 c 6
 277.620117188 337.966796875 l 5
 297.853515625 316.513671875 l 6
 339.892578125 271.939453125 346.061523438 195.15625 313 128 c 4
 293.765625 88.927734375 261.666015625 55.984375 218.263671875 30.771484375 c 4
 202.8125 21.794921875 186.787109375 11.1640625 182.650390625 7.146484375 c 4
 171.534179688 -3.6533203125 142.440429688 -0.708984375 112.752929688 14.220703125 c 5
 112.75390625 14.2197265625 l 5
236.329101562 156.896484375 m 4
 246.82421875 174.8046875 251.233398438 190.4375 251.233398438 209.731445312 c 4
 251.233398438 236.1640625 242.715820312 261.600585938 233.86328125 261.600585938 c 4
 231.51171875 261.600585938 220.079101562 248.86328125 208.45703125 233.295898438 c 4
 187.91015625 205.775390625 187.325195312 203.638671875 187.325195312 156.087890625 c 6
 187.325195312 107.18359375 l 5
 204.375 119.323242188 l 6
 213.751953125 126.000976562 228.131835938 142.909179688 236.329101562 156.896484375 c 4
196.151367188 361.000976562 m 4
 200.686523438 371.854492188 204.396484375 386.334960938 204.396484375 393.180664062 c 4
 204.396484375 405.265625 204.067382812 405.328125 193.015625 395.327148438 c 4
 185.39453125 388.428710938 181.634765625 377.80078125 181.634765625 363.147460938 c 4
 181.634765625 336.06640625 185.495117188 335.495117188 196.151367188 361.000976562 c 4
EndSplineSet
Validated: 524321
EndChar

StartChar: C
Encoding: 67 67 35
Width: 349
Flags: W
VStem: 258.421 77.6279<102.126 152.122>
LayerCount: 2
Fore
SplineSet
141.888671875 10.4375 m 5
 68.2392578125 37.9140625 14.587890625 127.250976562 14.484375 222.58203125 c 4
 14.3798828125 323.474609375 72.3017578125 433.916992188 152.23046875 485.208007812 c 4
 201.301757812 516.696289062 262.829101562 503.2734375 290.094726562 455.131835938 c 4
 307.729492188 423.995117188 307.830078125 369.063476562 290.303710938 343.418945312 c 4
 267.057617188 309.415039062 229.3125 307.545898438 214.673828125 339.67578125 c 4
 206.608398438 357.376953125 206.928710938 363.349609375 216.975585938 382.616210938 c 4
 227.921875 403.606445312 222.862304688 419.204101562 205.107421875 419.204101562 c 4
 185.325195312 419.204101562 139.443359375 371.11328125 120 330 c 4
 76.9462890625 238.962890625 90.8193359375 136.319335938 151.77734375 94.8974609375 c 4
 182.370117188 74.109375 208.5390625 76.005859375 236.225585938 101.01953125 c 4
 248.43359375 112.047851562 258.420898438 124.088867188 258.420898438 127.77734375 c 4
 258.420898438 140.20703125 283.762695312 158.595703125 300.891601562 158.595703125 c 4
 323.071289062 158.595703125 336.048828125 143.32421875 336.048828125 117.2265625 c 4
 336.048828125 81.4482421875 305.380859375 45.21484375 250.103515625 15.689453125 c 4
 220.642578125 -0.046875 175.826171875 -2.2216796875 141.893554688 10.4375 c 6
 141.888671875 10.4375 l 5
EndSplineSet
Validated: 524321
EndChar

StartChar: D
Encoding: 68 68 36
Width: 427
Flags: W
VStem: 329.8 80.1074<184.458 411.392>
LayerCount: 2
Fore
SplineSet
115.575195312 12.080078125 m 4
 100.422851562 17.9970703125 79.408203125 31.111328125 68.8759765625 41.2236328125 c 4
 49.21875 60.09765625 28.3056640625 95.0546875 28.3056640625 109.0390625 c 4
 28.3056640625 124.2578125 51.017578125 146.426757812 66.5185546875 146.338867188 c 4
 85.1787109375 146.232421875 89.3046875 143.3515625 109.7109375 116.192382812 c 4
 123.288085938 98.1220703125 160.578125 73.9970703125 165.213867188 80.28515625 c 4
 167.701171875 83.6591796875 179.6328125 217.33984375 182.615234375 275.247070312 c 4
 185.581054688 332.841796875 185.436523438 333.774414062 175.586914062 320.358398438 c 4
 146.049804688 280.12890625 129.013671875 273.310546875 105.076171875 292.139648438 c 4
 86.64453125 306.637695312 84.955078125 331.454101562 100.6484375 357.189453125 c 4
 123.587890625 394.809570312 203.536132812 473.876953125 229.5859375 484.70703125 c 4
 305.490234375 516.262695312 353.794921875 501.794921875 386.72265625 437.643554688 c 4
 404.502929688 403.002929688 410.693359375 369.02734375 409.907226562 310.3984375 c 4
 408.48828125 204.666992188 374.254882812 105.245117188 323 58 c 4
 310.0859375 46.0966796875 280.538085938 28.5341796875 256.795898438 18.650390625 c 4
 205.407226562 -2.7431640625 159.060546875 -4.8994140625 115.575195312 12.080078125 c 4
276.624023438 125.420898438 m 4
 314.379882812 175.778320312 333.296875 247.739257812 329.799804688 327.6953125 c 4
 327.337890625 384.002929688 314.567382812 416.814453125 294.068359375 419.50390625 c 4
 271.854492188 422.41796875 269.881835938 415.05859375 263.62109375 305.897460938 c 4
 260.26953125 247.452148438 256.037109375 178.83984375 254.215820312 153.42578125 c 4
 250.505859375 101.649414062 254.7890625 96.2978515625 276.624023438 125.420898438 c 4
EndSplineSet
Validated: 524321
EndChar

StartChar: E
Encoding: 69 69 37
Width: 371
Flags: W
LayerCount: 2
Fore
SplineSet
82.8447265625 11.0419921875 m 5
 27.02734375 45.080078125 11.9658203125 154.970703125 44.48046875 290.953125 c 4
 58.7802734375 350.756835938 59.095703125 354.944335938 50.4404296875 370.024414062 c 4
 35.3271484375 396.357421875 38.845703125 413.25 65.484375 442.265625 c 4
 90.6708984375 469.69921875 108.658203125 475.340820312 129.477539062 462.33984375 c 4
 140.713867188 455.322265625 189.189453125 466.978515625 225.228515625 485.364257812 c 4
 271.147460938 508.791015625 309.268554688 504.716796875 327.133789062 474.473632812 c 4
 338.921875 454.516601562 339.290039062 419.287109375 327.87890625 402.99609375 c 4
 316.342773438 386.526367188 285.461914062 386.124023438 270.440429688 402.247070312 c 4
 259.614257812 413.868164062 259.578125 413.868164062 235.2109375 403.088867188 c 4
 221.794921875 397.154296875 197.557617188 389.1171875 181.349609375 385.229492188 c 4
 160.581054688 380.247070312 150.423828125 374.65234375 146.94921875 366.282226562 c 4
 137.967773438 344.645507812 117.883789062 262.038085938 120.876953125 259.043945312 c 4
 122.494140625 257.426757812 133.454101562 258.779296875 145.23046875 262.048828125 c 4
 202.913085938 278.06640625 247.418945312 262.6875 247.418945312 226.735351562 c 4
 247.418945312 201.157226562 230.6171875 187.544921875 198.15625 186.823242188 c 4
 183.887695312 186.506835938 157.799804688 182.022460938 140.182617188 176.859375 c 6
 108.150390625 167.47265625 l 5
 108.150390625 143.390625 l 6
 108.150390625 114.780273438 117.803710938 84.193359375 126.80078125 84.2958984375 c 4
 136.26171875 84.4013671875 213.995117188 128.407226562 213.995117188 133.654296875 c 4
 213.995117188 140.536132812 240.522460938 151.071289062 257.8515625 151.071289062 c 4
 287.10546875 151.071289062 306.3125 116.565429688 291.97265625 89.7705078125 c 4
 288.90234375 84.033203125 254.264648438 61.63671875 215 40 c 4
 136.83203125 -3.07421875 114.141601562 -8.0458984375 82.84375 11.0400390625 c 5
 82.8447265625 11.0419921875 l 5
EndSplineSet
Validated: 524321
EndChar

StartChar: F
Encoding: 70 70 38
Width: 400
Flags: W
HStem: 171.824 82.1963<182.022 254.932> 316.853 78.1104<247.222 303.211> 436.335 20G<339.039 364.447>
VStem: 102.291 79.7314<14.1 175.315 254.021 291.345>
LayerCount: 2
Fore
SplineSet
105.629882812 11.38671875 m 6
 94.880859375 23.2373046875 94.3818359375 29.2529296875 96.7255859375 118.788085938 c 4
 98.08984375 170.955078125 100.595703125 234.9765625 102.291015625 261.060546875 c 4
 105.334960938 307.857421875 105.231445312 308.35546875 94.4404296875 298.720703125 c 4
 88.4267578125 293.350585938 75.93359375 288.95703125 66.6767578125 288.95703125 c 4
 27.03125 288.95703125 15.8330078125 338.671875 45.3134765625 383.8046875 c 4
 73.0185546875 426.219726562 125.221679688 482.481445312 146.037109375 492.360351562 c 4
 184.686523438 510.700195312 214.49609375 491.060546875 240.947265625 429.833984375 c 4
 254.127929688 399.323242188 257.905273438 394.962890625 271.155273438 394.962890625 c 4
 286.501953125 394.962890625 304.766601562 409.741210938 304.766601562 422.157226562 c 4
 304.766601562 434.185546875 331.720703125 456.334960938 346.357421875 456.334960938 c 4
 382.536132812 456.334960938 395.541992188 405.033203125 369.192382812 366.256835938 c 4
 347.762695312 334.71875 312.370117188 316.852539062 271.325195312 316.852539062 c 4
 234.224609375 316.852539062 220.983398438 321.657226562 197.365234375 343.685546875 c 6
 182.022460938 357.99609375 l 5
 182.022460938 306.008789062 l 5
 182.022460938 254.020507812 l 5
 201.66796875 257.208984375 l 6
 225.530273438 261.081054688 252.838867188 252.370117188 260.25 238.522460938 c 4
 268.818359375 222.513671875 266.676757812 202.290039062 255.32421875 192.016601562 c 4
 247.602539062 185.029296875 198.79296875 172.309570312 177.837890625 171.82421875 c 4
 177.0703125 171.80859375 176.443359375 140.600585938 176.443359375 102.478515625 c 4
 176.443359375 36.0498046875 175.842773438 32.451171875 162 16 c 4
 144.400390625 -4.9150390625 122.07421875 -6.7421875 105.630859375 11.38671875 c 5
 105.629882812 11.38671875 l 6
EndSplineSet
Validated: 524321
EndChar

StartChar: G
Encoding: 71 71 39
Width: 388
Flags: W
HStem: 182.313 91.6865<214.859 280.326>
LayerCount: 2
Fore
SplineSet
113.977539062 8.865234375 m 5
 89.8974609375 19.333984375 48.7646484375 61.1337890625 32.7939453125 91.361328125 c 4
 14.859375 125.307617188 14.7763671875 186.932617188 32.58203125 233.194335938 c 4
 68.794921875 327.159179688 144.395507812 426.224609375 222.00390625 481.401367188 c 4
 253.30078125 503.65234375 283.19140625 506.990234375 303.549804688 490.505859375 c 4
 321.958007812 475.598632812 325.005859375 418.354492188 308.504882812 397.377929688 c 4
 295.189453125 380.450195312 267.90234375 377.504882812 252.610351562 391.344726562 c 4
 243.865234375 399.2578125 239.860351562 396.526367188 204.400390625 358.486328125 c 4
 139.491210938 288.85546875 88.9970703125 183.260742188 100.849609375 141.936523438 c 4
 112.35546875 101.81640625 144.462890625 75.5400390625 174.041992188 82.037109375 c 4
 196.681640625 87.009765625 253.612304688 128.288085938 277.5078125 157.0546875 c 4
 308.712890625 194.623046875 303.4921875 199.33203125 249.5 182.313476562 c 4
 221.870117188 173.603515625 218.938476562 173.608398438 205.54296875 182.376953125 c 4
 187.818359375 193.991210938 181.598632812 216.194335938 191.095703125 233.94140625 c 4
 201.318359375 253.041015625 269.478515625 277.224609375 304 274 c 4
 334.9375 271.110351562 349.172851562 264.15625 364.788085938 244.303710938 c 4
 381.299804688 223.3125 381.115234375 168.428710938 364.448242188 141.076171875 c 4
 332.350585938 88.4248046875 279.032226562 41.474609375 218.749023438 12.78125 c 4
 188.890625 -1.4306640625 141.689453125 -3.1982421875 113.962890625 8.857421875 c 5
 113.977539062 8.865234375 l 5
EndSplineSet
Validated: 524321
EndChar

StartChar: H
Encoding: 72 72 40
Width: 316
Flags: W
HStem: 170.523 81.0068<118.118 188.184> 463.879 20G<64.623 82.6733>
VStem: 29.4746 80.8906<253.003 478.791> 40.1787 77.9395<29.1524 169.784> 200.5 74.8701<19.4257 170.523>
LayerCount: 2
Fore
SplineSet
229.182617188 2.6376953125 m 1xe8
 208.982421875 10.1103515625 203.647460938 28.466796875 200.5 101.330078125 c 2
 197.51171875 170.5234375 l 1
 157.815429688 170.5234375 l 1
 118.118164062 170.5234375 l 1
 121.842773438 105.298828125 l 2
 125.946289062 33.4619140625 121.162109375 19.1796875 92.998046875 19.1796875 c 0
 55.537109375 19.1796875 44.3720703125 39.6513671875 40.1787109375 116.025390625 c 0xd8
 37.3310546875 167.87890625 35.14453125 177.892578125 24.0908203125 189.697265625 c 0
 10.6962890625 204.001953125 10.7236328125 227.7421875 24.1552734375 243.924804688 c 0
 28.4013671875 249.041992188 30.16015625 284.908203125 29.474609375 352.393554688 c 0
 28.5087890625 447.485351562 29.13671875 454.090820312 40.509765625 468.548828125 c 0
 49.3349609375 479.767578125 57.666015625 483.87890625 71.580078125 483.87890625 c 0
 93.7666015625 483.87890625 110.369140625 466.421875 120.573242188 432.364257812 c 0
 126.071289062 414.012695312 125.546875 408.415039062 117.127929688 395.565429688 c 0
 108.616210938 382.576171875 107.650390625 371.403320312 110.365234375 317.38671875 c 0
 112.106445312 282.723632812 113.65625 253.725585938 113.807617188 252.946289062 c 0
 113.958007812 252.166015625 127.622070312 251.530273438 144.168945312 251.530273438 c 0
 194.068359375 251.530273438 193.3046875 249.345703125 186.265625 371.86328125 c 0
 180.538085938 471.560546875 180.795898438 478.725585938 190.505859375 489.455078125 c 0
 203.991210938 504.35546875 233.711914062 504.516601562 247.065429688 489.76171875 c 0
 259.911132812 475.567382812 264.424804688 430.073242188 275.370117188 204.495117188 c 0
 282.0078125 67.6923828125 282.360351562 27.5830078125 277 19 c 4
 268.135742188 4.806640625 244.85546875 -3.1591796875 229.182617188 2.638671875 c 1
 229.182617188 2.6376953125 l 1xe8
EndSplineSet
Validated: 524321
EndChar

StartChar: I
Encoding: 73 73 41
Width: 418
Flags: W
HStem: -1.56348 80.0781<267.227 367.263> 415.418 74.2129<45.855 165.626 243.899 376.063>
VStem: 156.965 84.5918<94.127 406.616> 165.626 74.667<369.523 410.274>
LayerCount: 2
Fore
SplineSet
267.2265625 -1.564453125 m 5xe0
 236.629882812 0.669921875 197.828125 5.423828125 181 9 c 4
 164.171875 12.5751953125 130.375976562 15.5947265625 105.899414062 15.7080078125 c 4
 47.7626953125 15.9765625 35.1083984375 23.341796875 37.4482421875 55.5400390625 c 4
 39.826171875 88.2490234375 62.19921875 99.67578125 117.524414062 96.4365234375 c 6
 156.96484375 94.126953125 l 5xe0
 157.645507812 208.877929688 l 6
 158.020507812 271.990234375 159.969726562 344.28125 161.9765625 369.5234375 c 6
 165.625976562 415.41796875 l 5
 114.901367188 415.41796875 l 6
 71.59375 415.41796875 62.548828125 417.045898438 53.0498046875 426.543945312 c 4
 38.04296875 441.551757812 38.83203125 466.204101562 54.798828125 481.205078125 c 4
 69.5546875 495.067382812 93.7744140625 496.047851562 262.940429688 489.630859375 c 4
 345.9921875 486.48046875 360.2890625 484.596679688 370.028320312 475.5234375 c 4
 384.211914062 462.309570312 384.467773438 437.276367188 370.59375 420.20703125 c 4
 360.4375 407.711914062 357.099609375 407.151367188 301.909179688 408.673828125 c 6
 243.899414062 410.274414062 l 5
 240.29296875 355.825195312 l 6xd0
 235.836914062 288.529296875 236.6640625 118.163085938 241.556640625 95.544921875 c 6
 245.166992188 78.85546875 l 5
 292.356445312 78.5146484375 l 6
 350.23828125 78.0966796875 361.556640625 74.5517578125 369.983398438 54.208984375 c 4
 378.916015625 32.6435546875 365.944335938 7.259765625 341.666992188 -1.2041015625 c 4
 331.938476562 -4.595703125 323.7265625 -6.9775390625 323.41796875 -6.498046875 c 4
 323.108398438 -6.0185546875 297.823242188 -3.7978515625 267.2265625 -1.5634765625 c 5
 267.2265625 -1.564453125 l 5xe0
EndSplineSet
Validated: 524321
EndChar

StartChar: J
Encoding: 74 74 42
Width: 440
Flags: W
HStem: 404.562 80.4375<259.135 407.029>
VStem: 44.0605 78.8975<108.262 205.675>
LayerCount: 2
Fore
SplineSet
125.255859375 12.3603515625 m 5
 83.283203125 39.2587890625 44.150390625 109.134765625 44.060546875 157.342773438 c 4
 43.9970703125 193.23046875 56.8369140625 209.426757812 85.36328125 209.426757812 c 4
 109.053710938 209.426757812 122.795898438 194.856445312 122.958007812 169.568359375 c 4
 123.107421875 146.461914062 139.299804688 109.231445312 155.447265625 94.8740234375 c 4
 167.040039062 84.5654296875 167.194335938 84.7119140625 176.25 114.581054688 c 4
 188.881835938 156.24609375 193.291992188 272.083984375 185.110351562 347.286132812 c 4
 181.41015625 381.301757812 177.481445312 410.033203125 176.381835938 411.133789062 c 4
 175.28125 412.233398438 146.388671875 414.981445312 112.174804688 417.239257812 c 4
 41.2197265625 421.920898438 27.1142578125 429.086914062 27.1142578125 460.452148438 c 4
 27.1142578125 473.822265625 31.36328125 482.249023438 42.5986328125 491.161132812 c 4
 59.458984375 504.537109375 50.4482421875 504.55078125 190.401367188 490.922851562 c 4
 222.918945312 487.756835938 280.788085938 485.090820312 319 485 c 4
 384.806640625 484.850585938 389.194335938 484.116210938 402.051757812 471.258789062 c 4
 419.250976562 454.059570312 419.234375 439.459960938 401.98828125 419.48046875 c 4
 388.46484375 403.809570312 387.831054688 403.685546875 323.223632812 404.122070312 c 6
 258.092773438 404.5625 l 5
 262.250976562 373.154296875 l 6
 264.538085938 355.87890625 266.318359375 293.603515625 266.208007812 234.763671875 c 4
 265.9921875 121.428710938 261.514648438 95.3291015625 233.551757812 44.453125 c 4
 211.061523438 3.533203125 161.802734375 -11.0634765625 125.250976562 12.3603515625 c 5
 125.255859375 12.3603515625 l 5
EndSplineSet
Validated: 524321
EndChar

StartChar: K
Encoding: 75 75 43
Width: 352
Flags: W
VStem: 34 82.7041<300.886 485.942> 226.938 79.0625<18.8904 183.461>
LayerCount: 2
Fore
SplineSet
60.181640625 15.072265625 m 5
 40.8232421875 35.6787109375 37.642578125 66.60546875 34 269.69140625 c 4
 30.5 464.848632812 31.919921875 477.87890625 58.005859375 489.763671875 c 4
 68.7978515625 494.680664062 76.291015625 494.274414062 91.4228515625 487.952148438 c 4
 115.423828125 477.923828125 125.127929688 456.62109375 116.704101562 432.456054688 c 4
 109.370117188 411.416992188 108.76171875 255.397460938 116.04296875 262.90234375 c 4
 118.895507812 265.842773438 147.129882812 317.624023438 178.787109375 377.97265625 c 4
 210.443359375 438.322265625 240.245117188 490.86328125 245.012695312 494.731445312 c 4
 267.663085938 513.111328125 308 490.888671875 307.670898438 460.2109375 c 4
 307.607421875 453.665039062 287.825195312 411.602539062 263.725585938 366.739257812 c 6
 219.908203125 285.168945312 l 5
 241.193359375 269.75 l 6
 279.206054688 242.213867188 301.015625 182.060546875 306 91 c 4
 308.916015625 37.7431640625 308.140625 30.5771484375 298.139648438 18.3193359375 c 4
 290.462890625 8.91015625 281.303710938 4.720703125 268.41015625 4.720703125 c 4
 239.229492188 4.720703125 231.361328125 19.4541015625 226.9375 82.3828125 c 4
 222.720703125 142.374023438 209.021484375 190.903320312 193.666992188 200.24609375 c 4
 185.159179688 205.422851562 178.561523438 200.787109375 150.302734375 169.77734375 c 4
 113.431640625 129.315429688 112.13671875 124.328125 123.083984375 64.9140625 c 4
 129.4140625 30.5615234375 129.142578125 28.51171875 116.4765625 15.029296875 c 4
 99.3974609375 -3.150390625 77.28515625 -3.134765625 60.181640625 15.072265625 c 5
EndSplineSet
Validated: 524321
EndChar

StartChar: L
Encoding: 76 76 44
Width: 307
Flags: W
VStem: 60.4043 82.0205<192.836 489.914>
LayerCount: 2
Fore
SplineSet
39.7392578125 15.892578125 m 4
 26.150390625 33.16796875 26.8408203125 51.6083984375 46.0234375 183.530273438 c 4
 52.7333984375 229.6796875 58.673828125 307.1171875 60.404296875 371.009765625 c 4
 63.0166015625 467.430664062 64.55078125 481.061523438 73.841796875 490.352539062 c 4
 84.388671875 500.899414062 109.900390625 504.220703125 121.3984375 496.54296875 c 4
 137.924804688 485.5078125 142.697265625 462.900390625 142.424804688 396.942382812 c 4
 142.149414062 330.296875 131.55078125 197.990234375 126.045898438 192.485351562 c 4
 124.479492188 190.918945312 131.303710938 185.736328125 141.208007812 180.967773438 c 4
 152.6015625 175.482421875 164.666015625 162.1328125 174.0546875 144.620117188 c 4
 194.015625 107.38671875 202.510742188 102.669921875 222 118 c 4
 252.952148438 142.346679688 292.33984375 128.396484375 291.939453125 93.2294921875 c 4
 291.27734375 35.001953125 175.081054688 5.9140625 135.182617188 53.98828125 c 4
 124.205078125 67.2158203125 120.444335938 64.9189453125 113.134765625 40.5224609375 c 4
 101.212890625 0.73046875 62.0126953125 -12.423828125 39.7392578125 15.892578125 c 4
EndSplineSet
Validated: 524321
EndChar

StartChar: M
Encoding: 77 77 45
Width: 356
Flags: W
HStem: 472.886 20G<65.8818 93.2222> 472.886 20G<65.8818 93.2222>
VStem: 38.3809 75.6396<11.6448 177.653> 38.3965 107.286<308.86 452.634> 243.459 77.541<11.2295 152.222 348.918 484.264>
LayerCount: 2
Fore
SplineSet
256.750976562 10.748046875 m 5x98
 247.487304688 20.96875 245.890625 34.0869140625 243.458984375 119.908203125 c 4
 240.958007812 208.192382812 240.041992188 215.352539062 233.817382812 195.342773438 c 4
 230.034179688 183.182617188 226.924804688 169.022460938 226.908203125 163.875 c 4
 226.866210938 151.482421875 205.951171875 137.307617188 187.703125 137.307617188 c 4
 167.264648438 137.307617188 145.98046875 155.817382812 129.876953125 187.59765625 c 4
 122.326171875 202.497070312 114.834960938 214.6875 113.228515625 214.6875 c 4
 111.623046875 214.6875 111.979492188 172.719726562 114.020507812 121.42578125 c 4
 117.61328125 31.1640625 117.354492188 27.78515625 105.979492188 16.41015625 c 4
 91.544921875 1.9755859375 71.904296875 1.3466796875 55.306640625 14.787109375 c 4
 44.5146484375 23.5263671875 42.1904296875 32.443359375 38.380859375 79.73046875 c 4xa8
 32.828125 148.657226562 32.83984375 406.618164062 38.396484375 445.666992188 c 4
 43.2802734375 479.986328125 54.02734375 492.885742188 77.736328125 492.885742188 c 4
 108.708007812 492.885742188 123.099609375 470.252929688 145.682617188 386.028320312 c 4
 156.686523438 344.989257812 169.155273438 301.463867188 173.391601562 289.303710938 c 6
 181.09375 267.1953125 l 5
 215.040039062 334.817382812 l 6
 241.725585938 387.978515625 248.984375 407.814453125 248.984375 427.57421875 c 4
 248.984375 477.516601562 274.668945312 508.870117188 305.864257812 497.009765625 c 4
 331.586914062 487.229492188 331.743164062 485.9375 326.29296875 327.708984375 c 4
 323.471679688 245.788085938 321.08984375 143.319335938 321 100 c 4
 320.853515625 28.732421875 319.784179688 20.1875 309.782226562 10.1845703125 c 4
 295.3359375 -4.26171875 270.110351562 -3.994140625 256.75 10.7490234375 c 5
 256.750976562 10.748046875 l 5x98
EndSplineSet
Validated: 524321
EndChar

StartChar: N
Encoding: 78 78 46
Width: 320
Flags: W
LayerCount: 2
Fore
SplineSet
200.590820312 15.947265625 m 5
 176.338867188 37.240234375 143.376953125 84.89453125 119.095703125 133.766601562 c 6
 101.142578125 169.903320312 l 5
 101.056640625 108.396484375 l 6
 100.971679688 42.8271484375 99.7529296875 38.205078125 79.8935546875 27.74609375 c 4
 62.8642578125 18.7763671875 39.2158203125 29.8662109375 28.7333984375 51.73828125 c 4
 17.212890625 75.7744140625 19.162109375 390.93359375 30.9423828125 408.912109375 c 4
 41.158203125 424.50390625 70.599609375 432.991210938 90.744140625 426.15234375 c 4
 108.137695312 420.248046875 110.413085938 415.053710938 138.270507812 317.666992188 c 4
 157.01953125 252.120117188 174.578125 203.829101562 197.680664062 154.272460938 c 6
 205.442382812 137.624023438 l 5
 209.252929688 162.729492188 l 6
 214.908203125 199.991210938 213.7578125 363.151367188 207.564453125 402.069335938 c 4
 195.229492188 479.590820312 195.223632812 476.41796875 207.713867188 488.915039062 c 4
 226.162109375 507.362304688 259.98828125 501.576171875 275.09375 477.388671875 c 4
 292.350585938 449.755859375 297.590820312 293.780273438 287 123 c 4
 280.399414062 16.5595703125 275.302734375 3.0400390625 240.658203125 0.0712890625 c 4
 224.834960938 -1.2841796875 216.412109375 2.052734375 200.5859375 15.947265625 c 5
 200.590820312 15.947265625 l 5
EndSplineSet
Validated: 524321
EndChar

StartChar: P
Encoding: 80 80 47
Width: 328
Flags: W
VStem: 65.6924 79.6846<22.3954 82.2324 253.033 422.282> 218.199 81.8145<290.364 402.531>
LayerCount: 2
Fore
SplineSet
92.1943359375 6.9130859375 m 5
 70.302734375 15.69921875 61.4736328125 46.9921875 60.4052734375 119.591796875 c 4
 59.5390625 178.397460938 58.1962890625 186.473632812 47.3701171875 197.998046875 c 4
 31.4814453125 214.911132812 31.9892578125 237.983398438 48.6171875 254.610351562 c 4
 59.859375 265.852539062 62.51953125 275.58203125 65.6923828125 317.073242188 c 4
 67.7587890625 344.103515625 66.861328125 388.48046875 63.697265625 415.6875 c 4
 55.283203125 488.032226562 61.9208984375 495.735351562 137.202148438 500.993164062 c 4
 191.3046875 504.771484375 209.3203125 498.85546875 247.827148438 464.663085938 c 4
 281.525390625 434.740234375 299.891601562 391.264648438 300.013671875 341.133789062 c 4
 300.161132812 280.2890625 268.923828125 232.57421875 205 196 c 4
 189.115234375 186.912109375 168.528320312 177.958984375 159.250976562 176.102539062 c 4
 136.828125 171.618164062 133.490234375 153.678710938 141.786132812 82.232421875 c 6
 148.220703125 26.8095703125 l 5
 133.260742188 13.94140625 l 6
 117.053710938 0 111.701171875 -0.916015625 92.1943359375 6.9130859375 c 5
202.284179688 294.303710938 m 4
 219.122070312 313.482421875 220.309570312 317.380859375 218.19921875 346.563476562 c 4
 215.337890625 386.118164062 198.9375 410.998046875 170.561523438 418.833007812 c 4
 159.368164062 421.923828125 149.76953125 423.893554688 149.23046875 423.209960938 c 4
 148.69140625 422.52734375 146.958007812 383.806640625 145.376953125 337.166015625 c 6
 142.502929688 252.364257812 l 5
 163.294921875 262.971679688 l 6
 174.731445312 268.805664062 192.276367188 282.905273438 202.284179688 294.303710938 c 4
EndSplineSet
Validated: 524321
EndChar

StartChar: O
Encoding: 79 79 48
Width: 373
Flags: W
HStem: 422.347 77.0596<176.463 227.142>
LayerCount: 2
Fore
SplineSet
160.53125 2.5732421875 m 6
 111.919921875 7.5859375 67.9365234375 57.2119140625 43.2744140625 134.874023438 c 4
 12.6865234375 231.1953125 39.5400390625 392.342773438 97.103515625 457.903320312 c 4
 122.0625 486.331054688 150.4921875 499.40625 187.342773438 499.40625 c 4
 253.435546875 499.40625 311.909179688 446.598632812 333.618164062 367.3046875 c 4
 342.099609375 336.32421875 341.706054688 215.848632812 333 178 c 4
 324.926757812 142.904296875 288.578125 73.3857421875 265.404296875 48.7197265625 c 4
 243.803710938 25.7275390625 201.922851562 -1.796875 190.430664062 -0.5537109375 c 4
 185.724609375 -0.0439453125 172.271484375 1.3623046875 160.532226562 2.5732421875 c 6
 160.53125 2.5732421875 l 6
200.616210938 95.25 m 4
 209.875 103.040039062 226.784179688 128.295898438 238.192382812 151.373046875 c 6
 258.93359375 193.331054688 l 5
 258.93359375 273.4375 l 6
 258.93359375 351.184570312 258.482421875 354.3125 243.583007812 379.658203125 c 4
 229.075195312 404.337890625 205.770507812 422.346679688 188.33984375 422.346679688 c 4
 184.02734375 422.346679688 179.033203125 415.022460938 177.243164062 406.071289062 c 4
 175.107421875 395.393554688 168.27734375 386.841796875 157.383789062 381.208984375 c 4
 136.74609375 370.537109375 125.5390625 349.3671875 115.532226562 302.155273438 c 4
 98.9052734375 223.70703125 111.372070312 144.216796875 147.100585938 100.872070312 c 4
 166.451171875 77.396484375 177.9609375 76.1865234375 200.616210938 95.25 c 4
EndSplineSet
Validated: 524321
EndChar

StartChar: Q
Encoding: 81 81 49
Width: 400
Flags: W
HStem: 478.569 20G<167.963 209.689> 478.569 20G<167.963 209.689>
LayerCount: 2
Fore
SplineSet
119.5078125 11.279296875 m 5x80
 91.12890625 27.19921875 54.5185546875 81.3671875 37.8759765625 132.063476562 c 4
 14.8154296875 202.313476562 24.583984375 319.985351562 60.4873046875 404.416992188 c 4
 76.845703125 442.88671875 92.146484375 462.2109375 121.801757812 481.853515625 c 4
 143.09765625 495.959960938 152.688476562 498.569335938 183.23828125 498.569335938 c 4
 236.140625 498.569335938 270.350585938 477.59375 308.400390625 421.829101562 c 4
 346.594726562 365.853515625 349.821289062 212.467773438 314.66015625 124.330078125 c 4
 307.3984375 106.12890625 307.779296875 104.831054688 324.1484375 91.9599609375 c 4
 371.5078125 54.724609375 375.561523438 45.138671875 355 19 c 4
 338.529296875 -1.939453125 307.901367188 -1.5029296875 278.083007812 20.09765625 c 6
 255.891601562 36.173828125 l 5
 230.333007812 17.3935546875 l 6
 208.758789062 1.541015625 199.90234375 -1.392578125 173.510742188 -1.4306640625 c 4
 151.596679688 -1.453125 135.446289062 2.33984375 119.5078125 11.2802734375 c 5
 119.5078125 11.279296875 l 5x80
199.122070312 95.0087890625 m 4
 209.525390625 106.50390625 207.84375 116.350585938 196.657226562 109.4375 c 4
 188.038085938 104.110351562 177.831054688 83.6044921875 183.798828125 83.6044921875 c 4
 186.549804688 83.6044921875 193.446289062 88.736328125 199.122070312 95.0087890625 c 4
188.63671875 194.998046875 m 5
 199.373046875 197.01171875 218.110351562 197.069335938 230.275390625 195.126953125 c 6
 252.392578125 191.590820312 l 5
 256.255859375 217.349609375 l 6
 263.397460938 264.973632812 256.427734375 345.546875 242.934570312 371.556640625 c 4
 219.981445312 415.772460938 180.737304688 432.944335938 173.502929688 401.9375 c 4
 171.678710938 394.12109375 163.252929688 384.384765625 154.776367188 380.30078125 c 4
 135.274414062 370.905273438 123.6875 348.504882812 113.5234375 300.547851562 c 4
 103.80859375 254.712890625 103.086914062 205.424804688 111.634765625 171.482421875 c 6
 117.971679688 146.318359375 l 5
 143.544921875 168.829101562 l 6
 157.666992188 181.260742188 177.858398438 192.979492188 188.637695312 195.001953125 c 5
 188.63671875 194.998046875 l 5
EndSplineSet
Validated: 524321
EndChar

StartChar: R
Encoding: 82 82 50
Width: 344
Flags: W
VStem: 73.2441 82.5508<13.4707 61.512 265.315 419.321>
LayerCount: 2
Fore
SplineSet
222.885742188 13.3271484375 m 5
 198.625976562 26.1435546875 179.470703125 48.677734375 175.290039062 69.318359375 c 4
 165.817382812 116.088867188 153.850585938 154.728515625 148.838867188 154.728515625 c 4
 143.3671875 154.728515625 144.461914062 133.696289062 153.890625 57.720703125 c 4
 158.1640625 23.27734375 143.305664062 6.005859375 111.6640625 8.6357421875 c 4
 79.4375 11.314453125 68.9013671875 37.7861328125 67.826171875 118.782226562 c 4
 67.091796875 174.064453125 65.474609375 183.834960938 54.8134765625 197.387695312 c 4
 38.5751953125 218.032226562 39.07421875 241.676757812 56.029296875 255.013671875 c 4
 67.8115234375 264.28125 69.8779296875 271.974609375 73.244140625 319.110351562 c 4
 75.349609375 348.572265625 74.451171875 392.647460938 71.25 417.05859375 c 4
 64.84375 465.918945312 67.7646484375 477.01171875 91.0576171875 492.2734375 c 4
 112.291015625 506.185546875 191.532226562 505.91015625 220.296875 491.82421875 c 4
 292.974609375 456.233398438 329.662109375 350.131835938 294.569335938 277.021484375 c 4
 283.734375 254.448242188 251.069335938 217.662109375 232.76171875 207.416992188 c 4
 222.950195312 201.926757812 223.000976562 200.228515625 234.004882812 165.474609375 c 4
 240.3125 145.552734375 247.724609375 120.337890625 250.4765625 109.440429688 c 4
 255.184570312 90.794921875 256.704101562 89.7353515625 276.264648438 91.4658203125 c 4
 304.385742188 93.9541015625 327.817382812 72.1484375 322.21484375 48.7041015625 c 4
 317.42578125 28.6650390625 310.508789062 20.0888671875 291 10 c 4
 269.87109375 -0.92578125 247.828125 0.150390625 222.885742188 13.3271484375 c 5
172.998046875 265.985351562 m 5
 219.366210938 296.991210938 234.133789062 325.775390625 223.649414062 364.709960938 c 4
 215.76171875 394.002929688 190.34765625 420.79296875 170.447265625 420.79296875 c 6
 155.859375 420.79296875 l 5
 155.794921875 368.4296875 l 6
 155.794921875 339.629882812 154.138671875 302.69140625 152.17578125 286.345703125 c 4
 148.318359375 254.23046875 151.193359375 251.415039062 172.982421875 265.985351562 c 6
 172.998046875 265.985351562 l 5
EndSplineSet
Validated: 524321
EndChar

StartChar: S
Encoding: 83 83 51
Width: 344
Flags: W
HStem: 481.201 20G<203.637 234.146>
LayerCount: 2
Fore
SplineSet
108.788085938 6.9833984375 m 4
 54.2705078125 38.4306640625 30.861328125 71.927734375 33.9765625 114.040039062 c 4
 37.3203125 159.25 86.150390625 173.3203125 104.3984375 134.333007812 c 4
 108.359375 125.87109375 114.840820312 111.9921875 118.805664062 103.489257812 c 4
 129.131835938 81.3359375 162.54296875 79.5107421875 201 99 c 4
 237.150390625 117.317382812 249.2890625 138.358398438 241.147460938 168.592773438 c 4
 234.12890625 194.6484375 219.452148438 208.155273438 179.0546875 225.727539062 c 4
 135.383789062 244.725585938 114.110351562 261.62890625 96.892578125 291.009765625 c 4
 83.3759765625 314.073242188 82.2451171875 320.272460938 85.181640625 355.286132812 c 4
 89.326171875 404.734375 103.604492188 436.595703125 133.805664062 463.802734375 c 4
 163.17578125 490.259765625 188.137695312 501.201171875 219.135742188 501.201171875 c 4
 249.15625 501.201171875 288.15625 478.946289062 300.791015625 454.60546875 c 4
 313.298828125 430.510742188 317.666992188 360.680664062 308.110351562 337.609375 c 4
 292.951171875 301.013671875 238.478515625 297.672851562 224.071289062 332.454101562 c 4
 218.609375 345.638671875 219.123046875 352.049804688 226.971679688 368.584960938 c 4
 246.125 408.948242188 222.283203125 432.001953125 188.701171875 405.587890625 c 4
 173.7265625 393.807617188 159.319335938 346.583984375 165.662109375 330.05859375 c 4
 169.712890625 319.501953125 197.630859375 302.342773438 224.95703125 293.612304688 c 4
 236.291992188 289.9921875 257.525390625 276.500976562 272.14453125 263.6328125 c 4
 338.989257812 204.793945312 343.25390625 110.724609375 281.529296875 56.5322265625 c 4
 235.321289062 15.958984375 140.420898438 -11.26171875 108.788085938 6.9833984375 c 4
EndSplineSet
Validated: 524321
EndChar

StartChar: T
Encoding: 84 84 52
Width: 452
Flags: W
HStem: 396.166 80.9043<265.771 420.476> 418.494 80.4307<37.7398 185.729>
VStem: 186.4 80.5264<10.2276 396.166>
LayerCount: 2
Fore
SplineSet
211 8 m 5xa0
 190.7265625 22.19921875 185.836914062 69.904296875 186.400390625 247.981445312 c 6
 186.913085938 411.294921875 l 5
 152.474609375 414.89453125 l 6
 133.536132812 416.875 104.477539062 418.494140625 87.9033203125 418.494140625 c 4
 63.349609375 418.494140625 55.2294921875 421.032226562 44.06640625 432.1953125 c 4
 26.619140625 449.642578125 26.6015625 471.056640625 44.0029296875 488.475585938 c 4
 56.8251953125 501.298828125 60.3134765625 501.935546875 101.216796875 498.924804688 c 4x60
 125.174804688 497.161132812 171.151367188 491.87109375 203.38671875 487.168945312 c 4
 235.622070312 482.466796875 294.15234375 477.922851562 333.455078125 477.0703125 c 4
 411.415039062 475.380859375 426.663085938 469.705078125 426.663085938 442.380859375 c 4
 426.663085938 406.1875 404.01171875 396.166015625 322.196289062 396.166015625 c 6
 264.05078125 396.166015625 l 5
 266.926757812 224.522460938 l 6
 268.508789062 130.118164062 270.002929688 45.3427734375 270.248046875 36.1328125 c 4
 271.047851562 6.1533203125 236.815429688 -10.0947265625 210.981445312 8 c 5
 211 8 l 5xa0
EndSplineSet
Validated: 524321
EndChar

StartChar: U
Encoding: 85 85 53
Width: 360
Flags: W
HStem: 465.522 20G<73.6675 108.285> 465.522 20G<73.6675 108.285>
VStem: 247.601 78.4355<426.257 482.147>
LayerCount: 2
Fore
SplineSet
165.352539062 3.568359375 m 5xa0
 115.072265625 10.853515625 84.0224609375 47.126953125 58.47265625 128.428710938 c 4
 37.349609375 195.642578125 34.005859375 250.9921875 43.9150390625 369.359375 c 4
 52.6640625 473.8671875 57.2919921875 485.522460938 90.04296875 485.522460938 c 4
 126.52734375 485.522460938 148.884765625 450.086914062 132.140625 418.799804688 c 4
 122.763671875 401.279296875 114.716796875 251.310546875 121 211.1796875 c 4
 133.828125 129.245117188 163.950195312 71.90625 186.725585938 86.0703125 c 4
 219.931640625 106.720703125 241.765625 174.104492188 252.684570312 289.637695312 c 4
 259.325195312 359.895507812 259.62109375 385.866210938 254.241210938 426.256835938 c 6
 247.600585938 476.125976562 l 5
 262.822265625 489.219726562 l 6
 287.069335938 510.075195312 309.327148438 504.28125 326.036132812 472.763671875 c 4
 341.458007812 443.673828125 339.092773438 282.583007812 321.909179688 191.6953125 c 4
 307.393554688 114.916992188 274.15625 48.103515625 236 19 c 4
 213.633789062 1.9404296875 198.861328125 -1.2861328125 165.3515625 3.568359375 c 5
 165.352539062 3.568359375 l 5xa0
EndSplineSet
Validated: 524321
EndChar

StartChar: V
Encoding: 86 86 54
Width: 343
Flags: W
HStem: 482.497 20G<60.5991 83.4399>
LayerCount: 2
Fore
SplineSet
118 19 m 4
 109.521484375 28.0771484375 98.3251953125 50.197265625 93.119140625 68.1572265625 c 4
 83.4697265625 101.450195312 32.0263671875 435.649414062 31.9404296875 465.598632812 c 4
 31.876953125 484.915039062 50.400390625 502.497070312 70.7978515625 502.497070312 c 4
 96.08203125 502.497070312 109.150390625 481.729492188 116.7734375 429.43359375 c 4
 142.708007812 251.528320312 151.37890625 189.715820312 151.379882812 182.740234375 c 4
 151.379882812 178.36328125 152.53515625 175.935546875 153.9453125 177.346679688 c 4
 158.831054688 182.232421875 208.2109375 342.711914062 227.001953125 414.775390625 c 4
 237.384765625 454.590820312 249.265625 489.313476562 253.405273438 491.936523438 c 4
 266.34375 500.137695312 295.297851562 497.3515625 304.211914062 487.047851562 c 4
 325.30078125 462.670898438 320.225585938 434.606445312 260.78515625 246.87890625 c 4
 244.153320312 194.350585938 224.188476562 126.751953125 216.418945312 96.658203125 c 4
 194.908203125 13.337890625 187.303710938 2.4970703125 150.366210938 2.4970703125 c 4
 138.857421875 2.4970703125 128.467773438 7.794921875 118 19 c 4
EndSplineSet
Validated: 524321
EndChar

StartChar: W
Encoding: 87 87 55
Width: 416
Flags: W
HStem: 0 111.34<291.195 344.371> 436.493 20G<49.4526 84.4771>
VStem: 30.5645 89.3037<132.001 422.104> 154.567 81.9775<219.465 367.857> 306.163 83.8604<115.02 487.809>
LayerCount: 2
Fore
SplineSet
267.259765625 23.970703125 m 5
 254.772460938 37.1533203125 237.0390625 63.3515625 227.853515625 82.1875 c 4
 218.66796875 101.0234375 209.900390625 116.53125 208.369140625 116.647460938 c 4
 206.837890625 116.7734375 199.323242188 101.732421875 191.66796875 83.244140625 c 4
 173.5703125 39.53125 151.63671875 16.701171875 127.73828125 16.701171875 c 4
 64.7177734375 16.701171875 32.3974609375 120.0625 30.564453125 327.465820312 c 4
 29.4912109375 448.971679688 31.630859375 456.493164062 67.2744140625 456.493164062 c 4
 101.6796875 456.493164062 125.196289062 419.029296875 113.36328125 383.069335938 c 4
 105.19140625 358.234375 109.297851562 221.845703125 119.868164062 167.009765625 c 6
 126.84375 130.825195312 l 5
 134.590820312 155.875976562 l 6
 149.75390625 204.91015625 157.6171875 264.078125 154.567382812 306.184570312 c 4
 151.858398438 343.5859375 152.78515625 349.2421875 163.47265625 360.462890625 c 4
 178.719726562 376.47265625 208.3515625 377.252929688 222.1484375 362.006835938 c 4
 228.52734375 354.958984375 233.682617188 336.515625 236.544921875 310.512695312 c 4
 238.997070312 288.23046875 245.95703125 254.856445312 252.010742188 236.349609375 c 4
 271.546875 176.629882812 298.123046875 111.33984375 302.897460938 111.33984375 c 4
 305.453125 111.33984375 308.54296875 125.744140625 309.763671875 143.350585938 c 4
 313.451171875 196.5390625 310.7109375 435.5625 306.163085938 457.338867188 c 4
 302.666992188 474.078125 303.98046875 479.733398438 313.596679688 489.349609375 c 4
 338.047851562 513.80078125 379.713867188 493.872070312 390.0234375 452.793945312 c 4
 391.953125 445.108398438 392.145507812 364.509765625 390.450195312 273.688476562 c 4
 386.189453125 45.1533203125 373.741210938 0 315 0 c 4
 292.72265625 0 287.462890625 2.6416015625 267.258789062 23.9697265625 c 5
 267.259765625 23.970703125 l 5
EndSplineSet
Validated: 524321
EndChar

StartChar: X
Encoding: 88 88 56
Width: 406
Flags: W
LayerCount: 2
Fore
SplineSet
60.5986328125 4.1787109375 m 4
 43.7607421875 10.3701171875 32.806640625 24.59765625 32.806640625 40.2763671875 c 4
 32.806640625 49.6083984375 44.474609375 76.0830078125 60.5986328125 103.337890625 c 4
 151.686523438 257.30078125 143.765625 240.451171875 137.78125 267.522460938 c 4
 124.299804688 328.51171875 121.934570312 333.517578125 102.821289062 341.502929688 c 4
 67.828125 356.124023438 63.3974609375 410.016601562 95.0009765625 436.610351562 c 4
 133.73046875 469.198242188 173.637695312 445.737304688 191.04296875 380.1484375 c 4
 196.598632812 359.212890625 202.290039062 340.040039062 203.69140625 337.541992188 c 4
 205.092773438 335.043945312 225.768554688 361.307617188 249.638671875 395.90625 c 4
 313.336914062 488.23046875 326.737304688 502.370117188 349.909179688 501.711914062 c 4
 371.44921875 501.09765625 388.551757812 484.654296875 388.551757812 464.5546875 c 4
 388.551757812 457.690429688 379.189453125 439.833007812 367.748046875 424.87109375 c 4
 356.306640625 409.91015625 320.071289062 359.197265625 287.2265625 312.174804688 c 4
 224.385742188 222.2109375 224.916992188 223.63671875 239.456054688 184.247070312 c 6
 244.370117188 170.931640625 l 5
 257.065429688 182.857421875 l 6
 272.890625 197.724609375 288.459960938 198.006835938 306.579101562 183.75390625 c 4
 325.705078125 168.708984375 329.112304688 150.271484375 318.607421875 118.645507812 c 4
 299.020507812 59.6689453125 268.813476562 36.42578125 232 52 c 4
 208.452148438 61.962890625 197.409179688 74.5 182.502929688 108.198242188 c 6
 170.578125 135.157226562 l 5
 148.278320312 96.87890625 l 6
 136.013671875 75.8251953125 120.883789062 48.193359375 114.657226562 35.4736328125 c 4
 100.9140625 7.400390625 81.8515625 -3.6357421875 60.5986328125 4.1787109375 c 4
EndSplineSet
Validated: 524321
EndChar

StartChar: Y
Encoding: 89 89 57
Width: 418
Flags: W
HStem: 481.099 20G<344.583 354.525>
LayerCount: 2
Fore
SplineSet
47.5068359375 5.0390625 m 4
 40.27734375 8.642578125 31.08984375 18.4169921875 27.0888671875 26.759765625 c 4
 15.8212890625 50.259765625 37.0498046875 90.076171875 91.5341796875 147.634765625 c 6
 136.70703125 195.357421875 l 5
 116.927734375 258.287109375 l 6
 106.049804688 292.8984375 88.1552734375 344.547851562 77.162109375 373.064453125 c 4
 58.6171875 421.172851562 57.7626953125 425.958007812 65.3125 439.409179688 c 4
 76.595703125 459.512695312 100.133789062 467.116210938 118.640625 456.63671875 c 4
 134.900390625 447.4296875 155.669921875 400.774414062 178.924804688 321.216796875 c 4
 186.932617188 293.819335938 194.733398438 269.264648438 196.259765625 266.65234375 c 4
 207.091796875 248.106445312 313.87109375 425.862304688 313.87109375 462.439453125 c 4
 313.87109375 476.848632812 337.547851562 501.098632812 351.6171875 501.098632812 c 4
 357.432617188 501.098632812 368.754882812 495.936523438 376.775390625 489.626953125 c 4
 403.103515625 468.916992188 392.573242188 416.731445312 345.025390625 332.286132812 c 4
 312.360351562 274.272460938 288.615234375 244.389648438 197 146 c 4
 151.084960938 96.689453125 108.329101562 45.6640625 101.987304688 32.611328125 c 4
 88.564453125 4.982421875 68.248046875 -5.298828125 47.5068359375 5.0390625 c 4
EndSplineSet
Validated: 524321
EndChar

StartChar: Z
Encoding: 90 90 58
Width: 424
Flags: W
HStem: 387.003 114.663<82.2729 163.911>
VStem: 317.533 84.2412<84.2083 120.15>
LayerCount: 2
Fore
SplineSet
53.48828125 12.9013671875 m 5
 38.654296875 27.7353515625 39.2900390625 47.7333984375 55.4091796875 73.40625 c 4
 62.646484375 84.9326171875 78.0888671875 115.513671875 89.7275390625 141.364257812 c 4
 118.709960938 205.740234375 171.4609375 297.541015625 207.3828125 346.1171875 c 6
 237.244140625 386.497070312 l 5
 186.096679688 387.002929688 l 6
 133.260742188 387.524414062 87.92578125 398.692382812 68.9375 415.864257812 c 4
 63.4453125 420.83203125 59.1064453125 432.750976562 59.1064453125 442.87109375 c 4
 59.1064453125 457.477539062 63.9140625 464.926757812 83.927734375 481.326171875 c 4
 100.530273438 494.930664062 114.483398438 501.666015625 126.0625 501.666015625 c 4
 142.674804688 501.666015625 161.833007812 488.4296875 166.802734375 473.518554688 c 4
 170.552734375 462.26953125 220.018554688 466.112304688 274.423828125 481.877929688 c 4
 333.500976562 498.998046875 334.690429688 499.036132812 353.291992188 484.404296875 c 4
 378.897460938 464.262695312 373.915039062 444.313476562 326.290039062 376.28515625 c 4
 303.296875 343.442382812 273.41796875 300.703125 259.892578125 281.309570312 c 4
 246.3671875 261.916015625 224.44140625 227.415039062 211.16796875 204.641601562 c 4
 192.037109375 171.819335938 188.624023438 162.228515625 194.69921875 158.37890625 c 4
 198.915039062 155.708984375 205.477539062 153.484375 209.282226562 153.4375 c 4
 213.0859375 153.373046875 233.795898438 136.750976562 255.303710938 116.461914062 c 4
 289.6171875 84.0927734375 295.82421875 80.3310546875 305.970703125 85.7607421875 c 4
 312.329101562 89.1640625 317.533203125 94.3876953125 317.533203125 97.369140625 c 4
 317.533203125 109.884765625 340.76171875 125.26171875 359.66796875 125.26171875 c 4
 386.110351562 125.26171875 401.811523438 109.02734375 401.774414062 81.7216796875 c 4
 401.7109375 55.1669921875 385.592773438 35.05859375 349 16 c 4
 296.970703125 -11.09765625 246.616210938 1.4814453125 206.313476562 51.64453125 c 4
 196.125976562 64.3251953125 186.013671875 74.689453125 183.841796875 74.6767578125 c 4
 181.669921875 74.6767578125 162.833007812 58.2314453125 141.981445312 38.16015625 c 4
 110.0390625 7.4111328125 100.973632812 1.666015625 84.3974609375 1.666015625 c 4
 72.21484375 1.666015625 60.4462890625 5.9443359375 53.48828125 12.90234375 c 5
 53.48828125 12.9013671875 l 5
EndSplineSet
Validated: 524321
EndChar

StartChar: bracketleft
Encoding: 91 91 59
Width: 216
Flags: W
HStem: 9.86621 69.7393<112.741 178.553> 422.668 77.1562<111.486 178.052>
VStem: 33.3623 77.1523<81.3581 419.848>
LayerCount: 2
Fore
SplineSet
57.666015625 3.802734375 m 4
 33.3173828125 16.5966796875 33.3623046875 16.14453125 33.3623046875 248.290039062 c 4
 33.3623046875 370.217773438 34.90234375 473.9921875 36.7861328125 478.8984375 c 4
 43.5439453125 496.5078125 66.79296875 502.6484375 116.025390625 499.82421875 c 4
 169.387695312 496.764648438 182.15625 489.580078125 182.15625 462.612304688 c 4
 182.15625 439.408203125 166.72265625 426.182617188 135.537109375 422.66796875 c 6
 110.514648438 419.84765625 l 5
 110.514648438 249.725585938 l 5
 110.514648438 79.60546875 l 5
 126.224609375 79.60546875 l 6
 153.329101562 79.60546875 175.4765625 68.8486328125 181 53 c 4
 186.594726562 36.9521484375 182.25 19.333984375 170.373046875 9.8662109375 c 4
 160.111328125 1.6865234375 70.83203125 -3.115234375 57.666015625 3.802734375 c 4
EndSplineSet
Validated: 524321
EndChar

StartChar: backslash
Encoding: 92 92 60
Width: 208
Flags: W
LayerCount: 2
Fore
SplineSet
118.135742188 22.94921875 m 4
 97.1396484375 51.9326171875 87.3916015625 95.2470703125 70.7265625 233.576171875 c 4
 63.146484375 296.497070312 51.87890625 369.499023438 45.689453125 395.803710938 c 4
 26.7958984375 476.09765625 26.9521484375 473.176757812 40.8115234375 487.930664062 c 4
 60.06640625 508.424804688 93.2919921875 504.076171875 106.538085938 479.326171875 c 4
 117.551757812 458.749023438 135.172851562 357.05078125 150.83984375 223.66015625 c 4
 158.283203125 160.293945312 167.241210938 110.672851562 175.733398438 85.765625 c 4
 183.03125 64.3662109375 189 40.6220703125 189 33 c 4
 189 14.634765625 172.975585938 0.94140625 151.482421875 0.94140625 c 4
 137.498046875 0.94140625 130.9453125 5.265625 118.135742188 22.94921875 c 4
EndSplineSet
Validated: 524321
EndChar

StartChar: bracketright
Encoding: 93 93 61
Width: 190
Flags: W
HStem: 1.29102 76.8525<33.2067 93.1475> 423.976 76.8516<27.4493 93.1475>
VStem: 93.1475 76.8525<78.4115 423.706>
LayerCount: 2
Fore
SplineSet
32.7646484375 12.2705078125 m 4
 26.6650390625 18.369140625 21.78515625 30.568359375 21.78515625 39.7177734375 c 4
 21.78515625 64.169921875 38.751953125 78.1435546875 68.4462890625 78.1435546875 c 6
 93.1474609375 78.1435546875 l 5
 93.1474609375 251.059570312 l 5
 93.1474609375 423.975585938 l 5
 71.931640625 423.975585938 l 6
 29.650390625 423.975585938 6.2490234375 463.333984375 32.7646484375 489.84765625 c 4
 42.2568359375 499.33984375 51.0615234375 500.827148438 97.787109375 500.827148438 c 4
 143.171875 500.827148438 153.286132812 499.21875 160.915039062 490.788085938 c 4
 169.0625 481.78515625 170 457.150390625 170 252 c 4
 170 -21.4873046875 176.732421875 1.291015625 95.892578125 1.291015625 c 4
 51.0615234375 1.291015625 42.2021484375 2.8330078125 32.7646484375 12.2705078125 c 4
EndSplineSet
Validated: 524321
EndChar

StartChar: asciicircum
Encoding: 94 94 62
Width: 316
Flags: W
HStem: 576.923 199.998
LayerCount: 2
Fore
SplineSet
55.916015625 590.30859375 m 0
 29.45703125 611.12109375 33.5546875 632.6484375 75.0595703125 690.876953125 c 0
 124.4375 760.151367188 141.469726562 777.165039062 161.198242188 776.920898438 c 0
 183.040039062 776.649414062 189.811523438 770.536132812 237.961914062 707.620117188 c 0
 295.727539062 632.142578125 306.184570312 603.143554688 259.651367188 583.8671875 c 0
 239.379882812 575.470703125 221 581 187.599609375 622.696289062 c 2
 162.030273438 655.04296875 l 1
 138.22265625 621.904296875 l 2
 117.508789062 593.072265625 95.9228515625 576.922851562 78.099609375 576.922851562 c 0
 75.2578125 576.922851562 65.275390625 582.946289062 55.916015625 590.30859375 c 0
EndSplineSet
Validated: 524321
EndChar

StartChar: grave
Encoding: 96 96 63
Width: 181
Flags: W
LayerCount: 2
Fore
SplineSet
80.8037109375 621.799804688 m 1
 70.99609375 633.69921875 51.9765625 667.845703125 38.5390625 697.680664062 c 0
 11.2744140625 758.217773438 11.9619140625 777.208007812 42.02734375 794.083007812 c 0
 55.298828125 801.532226562 61.7236328125 801.82421875 76.4638671875 795.650390625 c 0
 90.7841796875 789.653320312 101.494140625 773.927734375 127.534179688 720.661132812 c 0
 163.73828125 646.606445312 166.611328125 631.397460938 147.931640625 612.717773438 c 0
 128.115234375 592.900390625 101.67578125 596.477539062 80.8037109375 621.799804688 c 1
EndSplineSet
Validated: 524321
EndChar

StartChar: a
Encoding: 97 97 64
Width: 370
Flags: W
LayerCount: 2
Fore
SplineSet
78.6826171875 25.564453125 m 4
 78.681640625 25.5654296875 53.345703125 60.4638671875 41.138671875 94.8486328125 c 4
 16.66015625 163.801757812 22.6943359375 220.865234375 61.142578125 283.978515625 c 4
 94.9716796875 339.508789062 111.759765625 354.852539062 145.430664062 361.01171875 c 4
 186.046875 368.44140625 206.283203125 361.7578125 239.276367188 330.0234375 c 4
 277.522460938 293.237304688 287.70703125 260.227539062 285.796875 179.25390625 c 4
 284.197265625 111.379882812 277.7734375 101.817382812 323.916992188 82.6943359375 c 4
 348.793945312 72.3837890625 358.041992188 49.416015625 346.99609375 25.3701171875 c 4
 332.400390625 -6.4013671875 279.887695312 -6.7861328125 250.23828125 18.431640625 c 6
 240 27 l 4
 234.866210938 32.5625 l 5
 210.672851562 15.162109375 l 6
 180.055664062 -6.392578125 132.765625 -8.8046875 78.6826171875 25.564453125 c 4
181.805664062 133.12109375 m 5
 198.704101562 177.913085938 199.326171875 240.999023438 183.068359375 260.913085938 c 4
 159.958984375 289.21875 142.052734375 270.122070312 133.248046875 178.487304688 c 4
 127.984375 123.69140625 132.950195312 106.752929688 142.03125 96.7998046875 c 4
 156.059570312 81.423828125 165.588867188 90.1259765625 181.807617188 133.12109375 c 5
 181.805664062 133.12109375 l 5
EndSplineSet
Validated: 524321
EndChar

StartChar: b
Encoding: 98 98 65
Width: 312
Flags: W
HStem: 481.953 20G<74.7646 111.043>
LayerCount: 2
Fore
SplineSet
66.2373046875 13.09375 m 5
 39.9833984375 25.01953125 11.515625 54.1708984375 4.4814453125 76.3330078125 c 4
 -2.1015625 97.0732421875 19.81640625 121.568359375 47.0263671875 123.881835938 c 4
 66.7333984375 125.556640625 69.58203125 127.836914062 69.58203125 141.930664062 c 4
 69.58203125 150.803710938 65.1767578125 162.931640625 59.791015625 168.881835938 c 4
 44.9912109375 185.236328125 42.046875 223.735351562 53.5 251.147460938 c 4
 66.76171875 282.885742188 66.9013671875 380.00390625 53.740234375 418.764648438 c 4
 37.5302734375 466.509765625 54.935546875 501.953125 94.59375 501.953125 c 4
 127.493164062 501.953125 149.904296875 457.916992188 149.904296875 393.270507812 c 6
 149.904296875 354.397460938 l 5
 166.895507812 363.260742188 l 6
 190.66015625 375.658203125 215.997070312 374.365234375 239.999023438 359.532226562 c 4
 300.295898438 322.266601562 323.372070312 190.841796875 284.423828125 106.517578125 c 4
 264.500976562 63.380859375 224.006835938 23.267578125 188 11 c 4
 150.353515625 -1.828125 97.0673828125 -0.9111328125 66.236328125 13.0947265625 c 5
 66.2373046875 13.09375 l 5
189.182617188 120.418945312 m 4
 212.133789062 150.756835938 219.337890625 185.5859375 212.037109375 230.9140625 c 4
 208.638671875 252.021484375 203.340820312 271.806640625 200.265625 274.8828125 c 4
 196.927734375 278.219726562 185.3984375 272.331054688 171.673828125 260.28125 c 6
 148.674804688 240.086914062 l 5
 152.579101562 193.3828125 l 6
 158.2265625 125.8203125 162.633789062 100.338867188 168.669921875 100.338867188 c 4
 171.596679688 100.338867188 180.827148438 109.375 189.182617188 120.418945312 c 4
EndSplineSet
Validated: 524321
EndChar

StartChar: c
Encoding: 99 99 66
Width: 288
Flags: W
HStem: 351.882 20G<147.836 182.57>
VStem: 14.0703 265.289
LayerCount: 2
Fore
SplineSet
103 12 m 0
 69.9619140625 25.505859375 32.0068359375 67.2734375 18.9873046875 104.448242188 c 0
 14.255859375 117.96484375 12.0927734375 153.961914062 14.0703125 186.318359375 c 0
 17.0263671875 234.673828125 21.458984375 250.451171875 41.330078125 283.348632812 c 0
 54.3828125 304.955078125 79.3623046875 333.71484375 96.8447265625 347.2578125 c 0
 124.346679688 368.563476562 133.19140625 371.881835938 162.48046875 371.881835938 c 0
 202.659179688 371.881835938 233.875976562 355.4765625 249.766601562 326.0078125 c 0
 287.05078125 256.87890625 215.719726562 183.711914062 156.083984375 229.9140625 c 2
 137.711914062 244.14453125 l 1
 129.293945312 218.241210938 l 2
 113.983398438 171.1328125 123.022460938 111.599609375 147.915039062 95.595703125 c 0
 157.205078125 89.6201171875 161.474609375 92.078125 172.278320312 109.629882812 c 0
 206.541015625 165.294921875 296.409179688 141.93359375 279.359375 81.7939453125 c 0
 272.923828125 59.091796875 224.986328125 17.9189453125 192.85546875 7.4990234375 c 0
 159.240234375 -3.4033203125 138.084960938 -2.3427734375 103 12 c 0
EndSplineSet
Validated: 524321
EndChar

StartChar: d
Encoding: 100 100 67
Width: 374
Flags: W
HStem: 2.54492 79.2158<92.5542 200.75>
VStem: 141.237 79.2373<130.207 251.237 335.892 498.141>
LayerCount: 2
Fore
SplineSet
68.2080078125 14.3193359375 m 1
 42.3779296875 30.0654296875 30.3154296875 44.8349609375 13.697265625 81.060546875 c 0
 -12.3701171875 137.8828125 1.41015625 210.35546875 51.783203125 281.356445312 c 0
 67.982421875 304.188476562 112.485351562 336.462890625 127.76953125 336.462890625 c 0
 140.962890625 336.462890625 140.971679688 336.526367188 139.690429688 407.041992188 c 0
 138.485351562 473.35546875 139.169921875 478.383789062 151.009765625 490.234375 c 0
 167.462890625 506.702148438 201.896484375 506.637695312 215.275390625 490.10546875 c 0
 223.299804688 480.1953125 224.209960938 467.334960938 221.7421875 398.71484375 c 0
 219.3671875 332.6953125 220.603515625 313.12890625 228.875976562 285.806640625 c 0
 238.178710938 255.083984375 238.235351562 251.458007812 229.678710938 234.307617188 c 0
 224.064453125 223.052734375 220.474609375 201.749023438 220.474609375 179.680664062 c 0
 220.474609375 148.818359375 218.43359375 141.463867188 206.583007812 129.612304688 c 0
 198.94140625 121.971679688 187.365234375 115.719726562 180.856445312 115.719726562 c 0
 174.34765625 115.719726562 162.770507812 121.971679688 155.129882812 129.612304688 c 0
 142.3203125 142.421875 141.237304688 147.715820312 141.237304688 197.529296875 c 0
 141.237304688 229.40234375 138.940429688 251.555664062 135.635742188 251.555664062 c 0
 132.5546875 251.555664062 121.004882812 237.95703125 109.96875 221.3359375 c 0
 66.7861328125 156.297851562 77.7958984375 81.7607421875 130.5859375 81.7607421875 c 0
 161.291015625 81.7607421875 199.927734375 98.5498046875 260.000976562 137.99609375 c 0
 318.862304688 176.646484375 340.366210938 181.166015625 360.983398438 159.21875 c 0
 376.275390625 142.94140625 377.5234375 109.986328125 363.334960938 97.146484375 c 0
 357.860351562 92.19140625 346.001953125 86.7998046875 336.982421875 85.1640625 c 0
 327.962890625 83.52734375 306.336914062 72.5791015625 288.923828125 60.8330078125 c 0
 271.510742188 49.0869140625 238.6953125 31.162109375 216 21 c 0
 180.920898438 5.29296875 168.198242188 2.52734375 131.103515625 2.544921875 c 0
 96.93359375 2.544921875 83.291015625 5.11328125 68.20703125 14.3095703125 c 1
 68.2080078125 14.3193359375 l 1
EndSplineSet
Validated: 524321
EndChar

StartChar: e
Encoding: 101 101 68
Width: 345
Flags: W
LayerCount: 2
Fore
SplineSet
123 9 m 1
 58.197265625 32.982421875 13.3779296875 98.6982421875 18.2685546875 162.55859375 c 0
 27.0419921875 277.11328125 112.970703125 380.549804688 188.115234375 367.0078125 c 0
 209.453125 363.163085938 235.959960938 338.399414062 235.959960938 322.3125 c 0
 235.959960938 317.637695312 241.791992188 308.208007812 248.921875 301.360351562 c 0
 266.958007812 284.03515625 266.9765625 225.40625 248.946289062 197.015625 c 0
 227.244140625 162.823242188 200.31640625 150.69140625 153.309570312 153.932617188 c 0
 113.801757812 156.654296875 112.80078125 156.345703125 112.80078125 141.397460938 c 0
 112.80078125 132.7578125 121.067382812 118.127929688 131.748046875 107.870117188 c 0
 157.908203125 82.740234375 195.30078125 82.8974609375 245.670898438 108.350585938 c 0
 289.107421875 130.299804688 302.66015625 131.430664062 320.206054688 114.577148438 c 0
 338.077148438 97.4091796875 337.26953125 64.412109375 318.568359375 47.533203125 c 0
 272.5234375 5.9794921875 180.264648438 -12.1962890625 122.989257812 9.0009765625 c 1
 123 9 l 1
160.541015625 248.40234375 m 1
 158.497070312 253.518554688 154.165039062 256.127929688 150.916015625 254.19921875 c 0
 144.119140625 250.163085938 149.577148438 239.09765625 158.362304688 239.09765625 c 0
 161.603515625 239.09765625 162.583984375 243.28515625 160.540039062 248.40234375 c 1
 160.541015625 248.40234375 l 1
EndSplineSet
Validated: 524321
EndChar

StartChar: f
Encoding: 102 102 69
Width: 249
Flags: W
HStem: 159.867 76.9961<122.71 196.04> 480.85 20G<129.176 142.339>
VStem: 45.5967 76.9961<7.11792 159.867>
LayerCount: 2
Fore
SplineSet
59.095703125 13.875 m 5
 46.20703125 26.763671875 45.5966796875 30.474609375 45.5966796875 95.947265625 c 6
 45.5966796875 164.521484375 l 5
 28.5361328125 181.581054688 l 6
 14.802734375 195.314453125 12.1669921875 201.565429688 15.021484375 213.627929688 c 4
 16.970703125 221.870117188 23.0029296875 232.391601562 28.4248046875 237.009765625 c 4
 36.1630859375 243.6015625 39.0703125 257.4296875 41.947265625 301.322265625 c 4
 48.509765625 401.471679688 72.251953125 477.943359375 101.473632812 493.0546875 c 4
 109.763671875 497.341796875 124.385742188 500.849609375 133.965820312 500.849609375 c 4
 150.712890625 500.849609375 167.081054688 487.938476562 200.458007812 448.404296875 c 4
 205.473632812 442.462890625 215.9921875 433.15625 223.83203125 427.721679688 c 4
 234.194335938 420.538085938 238.063476562 413.030273438 238.001953125 400.22265625 c 4
 237.8984375 379.40625 234.125976562 372.76171875 217.3828125 363.943359375 c 4
 200.743164062 355.180664062 169.666015625 363.860351562 149.920898438 382.768554688 c 6
 134.969726562 397.092773438 l 5
 131.658203125 383.899414062 l 6
 122.920898438 349.084960938 116.975585938 265.387695312 122.25390625 251.50390625 c 4
 127.149414062 238.626953125 130.817382812 236.86328125 152.705078125 236.86328125 c 4
 182.595703125 236.86328125 199.588867188 222.91015625 199.588867188 198.365234375 c 4
 199.588867188 172.98046875 182.728515625 159.8671875 150.090820312 159.8671875 c 6
 122.592773438 159.8671875 l 5
 122.592773438 129.977539062 l 6
 122.592773438 113.537109375 124.833007812 94.193359375 127.571289062 86.9912109375 c 4
 134.899414062 67.71875 124.96484375 21.5615234375 111 10 c 4
 94.73828125 -3.462890625 74.9580078125 -1.986328125 59.095703125 13.875 c 5
EndSplineSet
Validated: 524321
EndChar

StartChar: g
Encoding: 103 103 70
Width: 319
Flags: W
HStem: -199.139 91.2402<176.048 215.043>
VStem: 11.5596 303.533
LayerCount: 2
Fore
SplineSet
121.390625 -267.965820312 m 1024
122.739257812 -274.6953125 m 1024
135.37109375 -170.044921875 m 0
 69.38671875 -103.319335938 55.193359375 -45.12109375 90.7861328125 12.77734375 c 2
 109.6875 43.521484375 l 1
 90.072265625 50.068359375 l 2
 68.03125 57.4248046875 47.2529296875 78.138671875 25.8232421875 114.118164062 c 0
 13.0986328125 135.48046875 11.3603515625 145.653320312 11.5595703125 197.51171875 c 0
 11.7890625 248.828125 13.4462890625 258.403320312 24.4140625 270.50390625 c 0
 31.357421875 278.1640625 44.2197265625 299.98828125 53 319 c 0
 81.7021484375 381.141601562 142.772460938 407.3203125 194.885742188 379.817382812 c 0
 225.5859375 363.615234375 244.309570312 322.137695312 247.706054688 262.797851562 c 2
 250.4140625 215.491210938 l 1
 270.046875 218.711914062 l 2
 296.49609375 223.052734375 315.092773438 204.637695312 315.092773438 174.104492188 c 0
 315.092773438 156.634765625 309.874023438 146.252929688 290.325195312 124.802734375 c 0
 267.37109375 99.6220703125 265.833007812 95.7841796875 269.305664062 72.419921875 c 0
 287.390625 -49.2353515625 286.96484375 -117.84375 267.873046875 -157.72265625 c 0
 252.56640625 -189.6953125 235.772460938 -199.138671875 194.221679688 -199.138671875 c 0
 166.329101562 -199.138671875 162.052734375 -197.0234375 135.37109375 -170.044921875 c 0
194.790039062 -53.154296875 m 1
 194.790039062 -23.046875 192.767578125 1.5546875 190.279296875 1.513671875 c 0
 183.595703125 1.3984375 158.69921875 -39.3349609375 158.69921875 -50.158203125 c 0
 158.69921875 -58.7578125 187.536132812 -107.8984375 192.583007812 -107.8984375 c 0
 193.787109375 -107.8984375 194.788085938 -83.263671875 194.788085938 -53.154296875 c 1
 194.790039062 -53.154296875 l 1
147.6640625 156.904296875 m 1
 168.266601562 192.686523438 169.602539062 299.639648438 149.4375 299.639648438 c 0
 134.703125 299.639648438 122.03125 271.765625 114.159179688 222.043945312 c 0
 109.978515625 195.62890625 104.66015625 170.915039062 102.34375 167.125 c 0
 95.783203125 156.388671875 112.090820312 134.80078125 125.303710938 136.733398438 c 0
 131.75 137.67578125 141.810546875 146.75390625 147.653320312 156.904296875 c 2
 147.6640625 156.904296875 l 1
EndSplineSet
Validated: 524321
EndChar

StartChar: h
Encoding: 104 104 71
Width: 285
Flags: W
HStem: 480 20G<43.6455 57.8433> 480 20G<43.6455 57.8433>
VStem: 12.1641 78.7598<288.329 494.431>
LayerCount: 2
Fore
SplineSet
195.8125 12.2275390625 m 0xa0
 174.772460938 35.3271484375 171.375 50.4033203125 165.124023438 148.369140625 c 2
 158.859375 246.563476562 l 1
 143.112304688 214.379882812 l 2
 134.452148438 196.678710938 119.248046875 149.39453125 109.327148438 109.3046875 c 0
 89.13671875 27.716796875 78.916015625 10.869140625 49.6103515625 10.869140625 c 0
 36.9921875 10.869140625 28.7119140625 14.9609375 20.6884765625 25.162109375 c 0
 9.6494140625 39.1953125 9.494140625 43.2705078125 12.1640625 249.346679688 c 0
 13.6640625 364.788085938 14.873046875 463.518554688 14.859375 468.75 c 0
 14.859375 483.405273438 34.8046875 500 52.486328125 500 c 0
 63.2001953125 500 72.0732421875 495.323242188 79.6591796875 485.6796875 c 0
 90.04296875 472.48046875 90.923828125 464.198242188 90.923828125 379.844726562 c 2
 90.923828125 288.329101562 l 1
 114.491210938 311.895507812 l 2
 140.90625 338.310546875 164.978515625 345.311523438 191.716796875 334.353515625 c 0
 226.354492188 320.157226562 236.211914062 287.916992188 240.891601562 173.551757812 c 2
 244.127929688 94.384765625 l 1
 259.671875 88.5185546875 l 2
 302.11328125 72.498046875 275.354492188 0 227 0 c 0
 213.129882812 0 203.516601562 3.76953125 195.8125 12.2275390625 c 0xa0
EndSplineSet
Validated: 524321
EndChar

StartChar: i
Encoding: 105 105 72
Width: 190
Flags: W
LayerCount: 2
Fore
SplineSet
52 7 m 1
 10.248046875 30.52734375 0.9404296875 86.486328125 19.59375 201.8203125 c 0
 26.1552734375 242.379882812 31.115234375 281.950195312 30.62109375 289.754882812 c 0
 28.9599609375 315.825195312 30.8291015625 323.107421875 41.8798828125 334.170898438 c 0
 56.7041015625 348.998046875 81.0595703125 348.217773438 95.8798828125 332.443359375 c 0
 111.475585938 315.841796875 111.74609375 271.453125 96.7529296875 188.973632812 c 0
 85.359375 126.29296875 82.974609375 92.3525390625 89.966796875 92.3525390625 c 0
 92.232421875 92.3525390625 100.994140625 101.0078125 109.435546875 111.587890625 c 0
 129.267578125 136.443359375 156.004882812 138.430664062 173.377929688 116.341796875 c 0
 188.936523438 96.564453125 187.756835938 86.107421875 166.908203125 58.9453125 c 0
 127.856445312 8.0712890625 84.708984375 -11.43359375 51.998046875 7 c 1
 52 7 l 1
41.8798828125 438.59375 m 1
 7.41015625 473.060546875 61.712890625 522.090820312 98.2109375 489.45703125 c 0
 110.127929688 478.802734375 110.616210938 456.008789062 99.2705078125 439.81640625 c 0
 88.0869140625 423.848632812 57.27734375 423.19140625 41.875 438.592773438 c 1
 41.8798828125 438.59375 l 1
EndSplineSet
Validated: 524321
EndChar

StartChar: j
Encoding: 106 106 73
Width: 278
Flags: W
HStem: 446.395 21G<96.4585 120.979>
VStem: 29.7334 123.166<-129.635 65.4848> 74.2373 70.2949<194.154 353.046>
LayerCount: 2
Fore
SplineSet
82.3466796875 -187.876953125 m 1xc0
 49.306640625 -152.474609375 26.3759765625 -57.212890625 29.7333984375 30.7021484375 c 0xc0
 31.798828125 85.0126953125 34.2919921875 97.7255859375 48.0537109375 124.428710938 c 0
 56.810546875 141.420898438 67.794921875 156.79296875 72.458984375 158.588867188 c 0
 83.01171875 162.653320312 83.6484375 202.504882812 74.2373046875 270.052734375 c 0
 66.58203125 325.0390625 71.38671875 343.889648438 95.3955078125 353.048828125 c 0
 113.442382812 359.93359375 136.005859375 352.205078125 144.532226562 336.219726562 c 0xa0
 149.30078125 327.278320312 168.122070312 195.063476562 168.122070312 170.505859375 c 0
 168.122070312 158.627929688 179.265625 174.3515625 182.854492188 191.294921875 c 0
 188.5546875 218.212890625 201.59375 230.595703125 224.240234375 230.595703125 c 0
 263.916015625 230.595703125 276.973632812 196.740234375 256.118164062 147.923828125 c 0
 241.295898438 113.224609375 219.602539062 88.8115234375 192.826171875 76.6962890625 c 2
 170.299804688 66.50390625 l 1
 163.4453125 1.2822265625 l 2
 159.673828125 -34.5888671875 154.9296875 -88.873046875 152.899414062 -119.34765625 c 0
 148.784179688 -181.137695312 138.348632812 -201 110 -201 c 0
 101.520507812 -201 89.080078125 -195.09765625 82.3427734375 -187.876953125 c 1
 82.3466796875 -187.876953125 l 1xc0
73.1240234375 457.060546875 m 2
 60.1240234375 471.474609375 60.6943359375 506.19140625 74.1357421875 518.395507812 c 0
 88.7578125 531.676757812 119.0390625 530.64453125 133.251953125 516.3828125 c 0
 159.256835938 490.2890625 139.7734375 446.39453125 102.185546875 446.39453125 c 0
 90.7314453125 446.39453125 78.7919921875 450.776367188 73.1240234375 457.059570312 c 2
 73.1240234375 457.060546875 l 2
EndSplineSet
Validated: 524321
EndChar

StartChar: k
Encoding: 107 107 74
Width: 254
Flags: W
VStem: 5.33008 79.749<256.684 473.73> 164.898 80.5088<15.4044 161.075>
LayerCount: 2
Fore
SplineSet
35.5693359375 13.55859375 m 1
 11.943359375 33.8798828125 6.265625 86.70703125 5.330078125 294.893554688 c 2
 4.525390625 473.73046875 l 1
 18.5498046875 487.75390625 l 2
 35.400390625 504.604492188 54.7705078125 505.671875 73.6875 490.791015625 c 2
 87.6552734375 479.8046875 l 1
 85.0791015625 365.502929688 l 2
 83.3525390625 288.9296875 84.3701171875 253.059570312 88.162109375 256.83203125 c 0
 91.2744140625 259.928710938 101.749023438 277.666015625 111.438476562 296.248046875 c 0
 139.046875 349.197265625 165.79296875 363.438476562 190.750976562 338.48046875 c 0
 205.995117188 323.236328125 204.977539062 297.680664062 187.970703125 268.66015625 c 2
 173.926757812 244.697265625 l 1
 198.700195312 218.842773438 l 2
 226.767578125 189.55078125 240.197265625 152.649414062 245.407226562 90.51171875 c 0
 248.973632812 47.97265625 245.598632812 28.1162109375 232.573242188 15.0947265625 c 0
 221.145507812 3.6669921875 188.620117188 3.69921875 179.118164062 15.158203125 c 0
 175.05859375 20.0498046875 168.66015625 48.0712890625 164.8984375 77.427734375 c 0
 158.086914062 130.590820312 148.41796875 163.931640625 139.813476562 163.931640625 c 0
 137.325195312 163.931640625 124.80859375 153.162109375 112 140 c 0
 89.2568359375 116.62890625 88.8046875 115.408203125 92.6982421875 87.9140625 c 0
 99.7568359375 38.078125 97.98828125 22.2822265625 84.0888671875 11.02734375 c 0
 67.044921875 -2.7734375 53.7587890625 -2.078125 35.5693359375 13.568359375 c 1
 35.5693359375 13.55859375 l 1
EndSplineSet
Validated: 524321
EndChar

StartChar: l
Encoding: 108 108 75
Width: 218
Flags: W
HStem: 3.6123 94.4189<12.486 63.2504>
VStem: 29.3242 79.8877<325.921 384.657>
LayerCount: 2
Fore
SplineSet
38.32421875 3.6123046875 m 1
 5.94140625 16.8662109375 -6.90234375 58.4697265625 13.4140625 84.298828125 c 0
 23.66796875 97.333984375 29.357421875 99.828125 44.744140625 98.03125 c 0
 55.0849609375 96.82421875 63.544921875 96.671875 63.544921875 97.6904296875 c 0
 63.544921875 98.7119140625 58.6962890625 113.965820312 52.771484375 131.591796875 c 0
 36.7880859375 179.147460938 28.1796875 250.495117188 29.32421875 325.920898438 c 0
 30.3828125 395.48828125 36.626953125 432.263671875 52.14453125 460.245117188 c 0
 82.8662109375 515.64453125 151.502929688 510.538085938 182.090820312 450.577148438 c 0
 206.639648438 402.458007812 200.893554688 278.270507812 167.520507812 135.681640625 c 0
 159.202148438 100.140625 162.604492188 87.982421875 180.862304688 87.982421875 c 0
 209.791992188 87.982421875 225.258789062 42.3388671875 203.651367188 20.7314453125 c 0
 190.068359375 7.1484375 155.541992188 5.7119140625 138 18 c 0
 126.883789062 25.78515625 124.204101562 25.328125 105.147460938 12.3955078125 c 0
 84.251953125 -1.7841796875 59.4697265625 -5.0419921875 38.32421875 3.6123046875 c 1
119.010742188 356.986328125 m 0
 119.286132812 382.430664062 117.782226562 390.879882812 113.982421875 385.0078125 c 0
 110.995117188 380.384765625 108.84765625 351.381835938 109.211914062 320.55859375 c 0
 109.783203125 272.12890625 110.461914062 268.322265625 114.240234375 292.537109375 c 0
 116.639648438 307.94921875 118.788085938 336.951171875 119.010742188 356.986328125 c 0
EndSplineSet
Validated: 524321
EndChar

StartChar: m
Encoding: 109 109 76
Width: 569
Flags: W
HStem: 258.65 101.397<6.75628 61.791>
VStem: 95.8936 86.2334<20.2803 168.301> 239.582 86.4062<7.6882 139.959> 371.728 80.5381<33.685 211.447>
LayerCount: 2
Fore
SplineSet
433.2109375 -36.2236328125 m 1
 417.063476562 -27.7607421875 406.615234375 -16.01171875 393 9 c 0
 375.12109375 41.8427734375 374.525390625 45.158203125 371.727539062 127.384765625 c 0
 370.086914062 175.6484375 366.446289062 212.518554688 363.255859375 213.232421875 c 0
 360.181640625 213.922851562 350.586914062 198.12109375 341.940429688 178.118164062 c 0
 328.556640625 147.162109375 326.180664062 133.870117188 325.98828125 88.830078125 c 0
 325.725585938 27.640625 320.481445312 11.134765625 298.954101562 3.732421875 c 0
 268.002929688 -6.9091796875 239.58203125 15.4296875 239.58203125 50.400390625 c 0
 239.58203125 68.5380859375 212.770507812 165.474609375 206.081054688 171.524414062 c 0
 200.927734375 176.18359375 182.126953125 84.388671875 182.126953125 54.560546875 c 0
 182.126953125 32.501953125 162.32421875 14.4521484375 138.124023438 14.4521484375 c 0
 112.3828125 14.4521484375 101.125 29.2734375 95.8935546875 70.0498046875 c 0
 89.9892578125 116.07421875 68.81640625 220.196289062 60.978515625 241.764648438 c 0
 56.0185546875 255.411132812 51.7919921875 258.650390625 38.9423828125 258.650390625 c 0
 17.1552734375 258.650390625 4.345703125 273.306640625 1.146484375 301.889648438 c 0
 -2.3486328125 333.137695312 5.0673828125 349.708007812 27.1787109375 360.047851562 c 0
 49.892578125 370.670898438 72.5537109375 366.4453125 91.65234375 348.025390625 c 0
 108.848632812 331.44140625 133.120117188 288.850585938 138.713867188 265.451171875 c 2
 142.676757812 248.869140625 l 1
 158.09375 264.473632812 l 2
 169.010742188 275.520507812 180.600585938 280.936523438 197.805664062 283.022460938 c 0
 219.916992188 285.704101562 223.732421875 284.391601562 240.297851562 268.4140625 c 0
 250.306640625 258.7578125 261.767578125 243.86328125 265.764648438 235.3125 c 2
 273.033203125 219.770507812 l 1
 280.611328125 235.3125 l 2
 302.021484375 279.224609375 343.364257812 315.443359375 376.69140625 319.486328125 c 0
 406.669921875 323.123046875 421.958007812 314.400390625 436.150390625 285.564453125 c 0
 446.26953125 265.004882812 448.758789062 246.000976562 452.265625 162.530273438 c 0
 457.801757812 30.783203125 462.919921875 19.7333984375 510.342773438 37.158203125 c 0
 531.231445312 44.8330078125 541.28515625 43.5400390625 557.006835938 31.154296875 c 0
 570.483398438 20.5361328125 570.356445312 -12.4140625 556.7890625 -23.5126953125 c 0
 525.65625 -48.9931640625 468.740234375 -54.8466796875 433.205078125 -36.2236328125 c 1
 433.2109375 -36.2236328125 l 1
EndSplineSet
Validated: 524321
EndChar

StartChar: n
Encoding: 110 110 77
Width: 379
Flags: W
VStem: 67.4033 99.1172<12.6155 158.02>
LayerCount: 2
Fore
SplineSet
261 -32 m 4
 222.174804688 -12.6962890625 215.891601562 2.7041015625 207.069335938 100.185546875 c 6
 199.028320312 189.056640625 l 5
 187.423828125 157.166015625 l 6
 181.04296875 139.626953125 171.635742188 102.606445312 166.520507812 74.900390625 c 4
 155.901367188 17.369140625 144.305664062 0.90625 114.399414062 0.90625 c 4
 76.0693359375 0.90625 68.8330078125 16.9580078125 67.4033203125 105.16796875 c 4
 65.7158203125 209.290039062 62.849609375 222.540039062 42.029296875 222.540039062 c 4
 18.68359375 222.540039062 -0.169921875 241.5234375 -0.1259765625 264.985351562 c 4
 -0.0517578125 302.805664062 12.744140625 332.622070312 34.607421875 345.895507812 c 4
 69.0419921875 366.797851562 106.395507812 353.173828125 128.420898438 311.6796875 c 6
 137.827148438 293.958007812 l 5
 159.13671875 321.177734375 l 6
 207.481445312 382.930664062 262.350585938 364.999023438 280.745117188 281.4375 c 4
 284.310546875 265.233398438 288.998046875 224.904296875 291.16015625 191.815429688 c 4
 297.868164062 89.123046875 297.217773438 90.9208984375 326.291992188 94.7197265625 c 4
 347.779296875 97.5283203125 353.228515625 95.5419921875 365.39453125 80.4736328125 c 4
 383.909179688 57.54296875 383.244140625 47.3583984375 361.008789062 13.31640625 c 4
 328.848632812 -35.919921875 297.477539062 -50.1357421875 261 -32 c 4
EndSplineSet
Validated: 524321
EndChar

StartChar: o
Encoding: 111 111 78
Width: 220
Flags: W
HStem: 371.301 20G<96.4922 129.323>
VStem: 1.65039 86.918<101.261 281.244>
LayerCount: 2
Fore
SplineSet
86.265625 1.71875 m 1
 54.310546875 9.17578125 27.5673828125 42.5244140625 11.8779296875 94.4833984375 c 0
 0.59765625 131.836914062 -1.013671875 148.713867188 1.650390625 201.640625 c 0
 5.9345703125 286.7734375 22.828125 339.301757812 55.4638671875 368.958984375 c 0
 76.248046875 387.844726562 84.45703125 391.30078125 108.52734375 391.30078125 c 0
 150.118164062 391.30078125 174.122070312 373.795898438 197.208984375 326.626953125 c 0
 250.499023438 217.745117188 204.349609375 22.5126953125 120 0 c 0
 113.233398438 -1.8056640625 98.0537109375 -1.033203125 86.265625 1.71875 c 1
119.481445312 129.889648438 m 0
 129.760742188 161.040039062 134.08984375 248.59765625 126.534179688 272.536132812 c 0
 115.71484375 306.809570312 94.3662109375 270.227539062 88.568359375 207.484375 c 0
 84.568359375 164.186523438 94.1953125 100.499023438 104.741210938 100.499023438 c 0
 107.514648438 100.499023438 114.1484375 113.724609375 119.481445312 129.889648438 c 0
EndSplineSet
Validated: 524321
EndChar

StartChar: p
Encoding: 112 112 79
Width: 256
Flags: W
VStem: 16.1523 87.1768<-133.461 12.9678 95.7723 231.277>
LayerCount: 2
Fore
SplineSet
51.603515625 -195.5390625 m 0
 42.0615234375 -191.618164062 32.32421875 -182.552734375 29.966796875 -175.393554688 c 0
 24.87890625 -159.951171875 15.2421875 43.9873046875 16.15234375 116.948242188 c 0
 16.619140625 154.330078125 14.2900390625 172.768554688 7.4794921875 185.641601562 c 0
 0.77734375 198.311523438 -0.728515625 209.720703125 2.10546875 226.390625 c 0
 9.6943359375 271.055664062 31.1748046875 296.001953125 86.4248046875 324.313476562 c 0
 187.549804688 376.133789062 260.237304688 303.325195312 251.626953125 158.8359375 c 0
 248.744140625 110.469726562 231.232421875 68.3193359375 203.307617188 42.5341796875 c 0
 179.514648438 20.5634765625 159.620117188 12.9677734375 125.868164062 12.9677734375 c 2
 99.71484375 12.9677734375 l 1
 103.329101562 -80.6044921875 l 2
 106.297851562 -157.448242188 105.471679688 -176.231445312 98.705078125 -185.673828125 c 0
 87.70703125 -201.021484375 72.6259765625 -204.178710938 51.603515625 -195.5390625 c 0
155.046875 109.3984375 m 0
 165.391601562 122.998046875 167 132.907226562 167 183 c 0
 167 233.62890625 165.560546875 242.291992188 155.510742188 252.11328125 c 2
 144.022460938 263.34375 l 1
 119.685546875 251.575195312 l 1
 95.3486328125 239.806640625 l 1
 98.4326171875 170.37890625 l 2
 100.12890625 132.1953125 103.037109375 98.548828125 104.893554688 95.6123046875 c 0
 111.704101562 84.841796875 142.890625 93.4140625 155.046875 109.3984375 c 0
EndSplineSet
Validated: 524321
EndChar

StartChar: q
Encoding: 113 113 80
Width: 345
Flags: W
HStem: -88.3047 88.3047<97.6744 154.266> -71.7295 89.3115<236.612 331.515>
VStem: 154.387 83.665<-187.451 -88.6602> 156.576 92.6504<131.106 295.802>
LayerCount: 2
Fore
SplineSet
176.837890625 -188.271484375 m 1x60
 163.950195312 -176.9296875 154.599609375 -143.131835938 154.38671875 -107.106445312 c 0x60
 154.176757812 -84.998046875 154.116210938 -84.8603515625 134.571289062 -88.3046875 c 0
 118.909179688 -91.0654296875 112.095703125 -88.9208984375 101.206054688 -77.8115234375 c 0
 73.755859375 -49.796875 92.59375 -7.6630859375 136 0 c 0
 148.416992188 2.1923828125 157.583007812 7.458984375 158.557617188 12.9609375 c 0
 159.923828125 20.7314453125 154.307617188 21.8212890625 123.737304688 19.70703125 c 0
 91.5166015625 17.4794921875 84.7060546875 19.03125 65.2041015625 33.05078125 c 0
 37.4423828125 53.005859375 18.681640625 84.03125 6.5966796875 129.965820312 c 0
 -1.8037109375 161.897460938 -2.056640625 172.665039062 4.2802734375 228.46875 c 0
 12.0986328125 297.306640625 21.6923828125 324.173828125 43.54296875 338.41796875 c 0
 51.4658203125 343.58203125 67.73046875 354.858398438 79.6875 363.475585938 c 0
 107.216796875 383.31640625 128.6875 387.860351562 157.912109375 380.030273438 c 0
 185.232421875 372.709960938 211.28125 346.96484375 224.63671875 314.077148438 c 0
 229.922851562 301.068359375 235.864257812 290.42578125 237.840820312 290.42578125 c 0
 247.665039062 290.42578125 253.801757812 258.694335938 249.2265625 231.573242188 c 0x90
 246.559570312 215.76953125 242.629882812 160.642578125 240.494140625 109.069335938 c 2
 236.612304688 15.2978515625 l 1
 278.265625 17.58203125 l 2
 314.815429688 19.5869140625 321.352539062 18.310546875 331.620117188 7.1572265625 c 0
 345.9296875 -8.3876953125 346.631835938 -29.970703125 333.405273438 -47.720703125 c 0
 325.64453125 -58.1318359375 314.454101562 -62.1611328125 281.96875 -66.2451171875 c 0
 259.133789062 -69.1162109375 238.2265625 -71.583984375 235.508789062 -71.7294921875 c 0
 232.741210938 -71.8896484375 232.282226562 -88.6103515625 234.458007812 -109.74609375 c 0
 236.604492188 -130.510742188 238.219726562 -154.293945312 238.051757812 -162.600585938 c 0
 237.6953125 -180.545898438 219.244140625 -198.841796875 201.516601562 -198.841796875 c 0
 194.548828125 -198.841796875 183.44140625 -194.084960938 176.834960938 -188.271484375 c 1
 176.837890625 -188.271484375 l 1x60
136.020507812 133.83984375 m 0
 152.060546875 167.926757812 161.211914062 220.159179688 156.576171875 251.162109375 c 0x10
 148.765625 303.389648438 134.243164062 309.758789062 111.809570312 270.794921875 c 0
 103.6796875 256.674804688 93.6376953125 242.948242188 89.4951171875 240.291992188 c 0
 80.6748046875 234.633789062 78.9248046875 160.970703125 87.0595703125 137.727539062 c 0
 93.59375 119.060546875 109.28125 101.9921875 117.254882812 104.87890625 c 0
 120.662109375 106.112304688 129.106445312 119.14453125 136.020507812 133.83984375 c 0
EndSplineSet
Validated: 524321
EndChar

StartChar: r
Encoding: 114 114 81
Width: 253
Flags: W
VStem: 6.92285 77.7305<300.957 351.01>
LayerCount: 2
Fore
SplineSet
47.681640625 14.978515625 m 2
 31.703125 31.6171875 23.8017578125 69.1005859375 18.5859375 153.005859375 c 0
 16.55859375 185.591796875 11.310546875 235.352539062 6.9228515625 263.583007812 c 0
 -2.18359375 322.16015625 2.10546875 339.915039062 28.544921875 353.112304688 c 0
 50.486328125 364.063476562 75.7236328125 349.98046875 84.6533203125 321.80078125 c 2
 91.259765625 300.95703125 l 1
 109.00390625 322.002929688 l 2
 157.908203125 380.006835938 209.094726562 370.438476562 240.10546875 297.494140625 c 0
 258.729492188 253.69140625 255.36328125 227.208007812 230 218 c 0
 209.470703125 210.547851562 192.271484375 217.52734375 176.528320312 239.705078125 c 2
 163.87109375 257.533203125 l 1
 141.49609375 230.609375 l 2
 129.188476562 215.802734375 115.272460938 195.940429688 110.572265625 186.471679688 c 0
 100.642578125 166.4765625 99.6611328125 122.109375 108.387695312 87.7666015625 c 0
 121.357421875 36.7197265625 121.283203125 30.83203125 107.474609375 15.5234375 c 0
 90.4130859375 -3.388671875 65.537109375 -3.615234375 47.681640625 14.9775390625 c 2
 47.681640625 14.978515625 l 2
EndSplineSet
Validated: 524321
EndChar

StartChar: s
Encoding: 115 115 82
Width: 309
Flags: W
VStem: 197.295 95.8633<250.955 300.778>
LayerCount: 2
Fore
SplineSet
59 13 m 0
 4.978515625 39.8486328125 -16.3037109375 94.4697265625 13.0283203125 130.982421875 c 0
 27.4228515625 148.901367188 58.794921875 145.561523438 73.419921875 124.556640625 c 0
 95.4755859375 92.8740234375 98.0478515625 90.818359375 115.630859375 90.818359375 c 0
 145.965820312 90.818359375 192.650390625 104.270507812 206.62109375 117.036132812 c 0
 219.626953125 128.918945312 219.715820312 129.701171875 209.081054688 138.578125 c 0
 203.013671875 143.643554688 178.845703125 153.987304688 155.376953125 161.5625 c 0
 73.3154296875 188.05078125 43.7412109375 224.763671875 55.7783203125 285.205078125 c 0
 64.4345703125 328.67578125 84.669921875 356.01953125 123.098632812 376.17578125 c 0
 165.295898438 398.309570312 211.07421875 400.270507812 247.037109375 381.487304688 c 0
 280.513671875 364 289.229492188 349.055664062 293.158203125 302.408203125 c 0
 295.776367188 271.313476562 294.189453125 262.3125 283.147460938 245.612304688 c 0
 275.9296875 234.697265625 265.635742188 225.767578125 260.270507812 225.767578125 c 0
 253.309570312 225.767578125 256.642578125 218.86328125 271.90625 201.668945312 c 0
 299.75 170.30078125 306.641601562 154.956054688 306.641601562 124.322265625 c 0
 306.641601562 94.3935546875 288.299804688 62.1630859375 259.28125 41.1044921875 c 0
 207.547851562 3.560546875 106.516601562 -10.6162109375 59 13 c 0
197.294921875 262.717773438 m 0
 197.182617188 272.436523438 199.186523438 285.44921875 201.772460938 291.634765625 c 0
 209.249023438 309.515625 173.849609375 306.39453125 153.317382812 287.362304688 c 0
 134.305664062 269.739257812 135.65625 266.586914062 167.458984375 254.373046875 c 0
 197.975585938 242.653320312 197.549804688 242.53515625 197.294921875 262.717773438 c 0
EndSplineSet
Validated: 524321
EndChar

StartChar: t
Encoding: 116 116 83
Width: 306
Flags: W
HStem: 376.637 104.542<181.652 259.355>
VStem: 58.5947 81.2783<118.038 300.734>
LayerCount: 2
Fore
SplineSet
119.684570312 18.7197265625 m 0
 108.887695312 27.4091796875 90.724609375 53.310546875 79.32421875 76.2783203125 c 2
 58.5947265625 118.038085938 l 1
 58.5947265625 210.184570312 l 1
 58.5947265625 302.33203125 l 1
 43.875 298.814453125 l 2
 24.515625 294.189453125 -2.8427734375 319.471679688 -2.8427734375 341.985351562 c 0
 -2.8427734375 374.274414062 10.0888671875 393.989257812 44.0830078125 413.522460938 c 0
 75.576171875 431.62109375 77.7265625 434.510742188 84.3046875 467.580078125 c 0
 88.126953125 486.794921875 92.8076171875 521.3828125 94.7060546875 544.440429688 c 0
 98.4951171875 590.448242188 113.2890625 617.80859375 134.37890625 617.80859375 c 0
 173.788085938 617.80859375 205.612304688 539.926757812 181.65625 502.10546875 c 0
 167.456054688 479.685546875 171.208984375 476.229492188 204.380859375 481.178710938 c 0
 233.610351562 485.540039062 237.495117188 484.383789062 254.469726562 466.262695312 c 0
 293.580078125 424.509765625 272.268554688 367.454101562 220.990234375 376.63671875 c 0
 188.233398438 382.501953125 157.264648438 370.452148438 153.114257812 350.224609375 c 0
 145.053710938 310.934570312 136.2109375 185.055664062 139.873046875 161.745117188 c 0
 142.120117188 147.440429688 150.397460938 127.077148438 158.265625 116.493164062 c 2
 172.573242188 97.25 l 1
 195.97265625 128.693359375 l 2
 208.842773438 145.98828125 224.57421875 167.211914062 230.931640625 175.858398438 c 0
 244.418945312 194.205078125 264.202148438 196.061523438 282.564453125 180.703125 c 0
 292.640625 172.274414062 295.568359375 162.926757812 295.568359375 139.177734375 c 0
 295.568359375 111.611328125 292.236328125 104.231445312 262.444335938 65.8037109375 c 0
 244.225585938 42.3056640625 221.9765625 18.5439453125 213 13 c 0
 187.6484375 -2.65625 142.833007812 0.0908203125 119.684570312 18.7197265625 c 0
EndSplineSet
Validated: 524321
EndChar

StartChar: u
Encoding: 117 117 84
Width: 338
Flags: W
HStem: -24.1377 87.4502<279.354 320.941>
VStem: 2.63379 108.882<114.675 356.489> 147.499 113.603<123.96 364.204>
LayerCount: 2
Fore
SplineSet
217.748046875 -0.9150390625 m 1
 203.265625 11.869140625 191.416992188 24.7666015625 191.416992188 27.75 c 0
 191.416992188 30.7314453125 181.328125 25.8974609375 169 17 c 0
 119.603515625 -18.6318359375 53.564453125 3.158203125 25.0029296875 64.5146484375 c 0
 2.8984375 112.004882812 -2.81640625 156.365234375 2.6337890625 238.192382812 c 0
 8.0556640625 319.595703125 18.216796875 358.299804688 38.796875 375.943359375 c 0
 58.03515625 392.4375 92.3701171875 391.544921875 111.510742188 374.052734375 c 0
 128.413085938 358.608398438 128.4140625 330.00390625 111.515625 275.671875 c 0
 101.913085938 244.797851562 103.954101562 128.15234375 114.344726562 113.934570312 c 0
 119.275390625 107.186523438 123.279296875 109.290039062 132.177734375 123.302734375 c 0
 140.903320312 137.04296875 144.575195312 168.07421875 147.499023438 252.797851562 c 2
 151.34375 364.223632812 l 1
 171.787109375 379.288085938 l 2
 197.59765625 398.310546875 214.392578125 398.3046875 240.190429688 379.288085938 c 2
 260.631835938 364.204101562 l 1
 261.1015625 249.67578125 l 2
 261.463867188 160.560546875 264.338867188 127.176757812 274.055664062 99.228515625 c 0
 280.922851562 79.4736328125 289.111328125 63.3125 292.250976562 63.3125 c 0
 308.12109375 63.3125 329.849609375 36.3037109375 329.849609375 16.5751953125 c 0
 329.849609375 -9.6123046875 308.7734375 -24.1376953125 270.7734375 -24.1376953125 c 0
 249.541015625 -24.1376953125 238.693359375 -19.3828125 217.75 -0.896484375 c 1
 217.748046875 -0.9150390625 l 1
EndSplineSet
Validated: 524321
EndChar

StartChar: v
Encoding: 118 118 85
Width: 357
Flags: W
HStem: 300.682 103.977<271.444 342.154>
VStem: 135.594 132.683<405.39 477.918>
LayerCount: 2
Fore
SplineSet
103 9 m 0
 62.1796875 27.9619140625 25.888671875 89.408203125 8.2666015625 169.393554688 c 0
 -5.47265625 231.759765625 -1.9208984375 350.86328125 14.6943359375 384.8984375 c 0
 34.1201171875 424.688476562 65.1865234375 433.52734375 95.6875 407.942382812 c 0
 114.666992188 392.01953125 120.317382812 354.00390625 105.9765625 338.708984375 c 0
 101.87109375 334.33203125 96.900390625 309.328125 94.9296875 283.145507812 c 0
 90.947265625 230.23046875 105.16796875 159.994140625 127.075195312 124.37890625 c 2
 139.8671875 103.58203125 l 1
 150.86328125 131.655273438 l 2
 156.913085938 147.09375 165.131835938 189.508789062 169.125976562 225.908203125 c 2
 176.387695312 292.08984375 l 1
 158.385742188 314.90234375 l 2
 135.360351562 344.0859375 131.020507812 363.6015625 135.59375 417.389648438 c 0
 141.581054688 487.810546875 176.159179688 521.790039062 221.462890625 501.776367188 c 0
 243.641601562 491.978515625 267.923828125 449.16796875 268.276367188 419.241210938 c 0
 268.4296875 407.0078125 273.063476562 404.83984375 299.501953125 404.658203125 c 0
 334.415039062 404.413085938 355.9921875 384.856445312 355.9921875 353.451171875 c 0
 355.9921875 331.938476562 327.974609375 300.681640625 308.692382812 300.681640625 c 0
 281.245117188 300.681640625 268.411132812 287.486328125 268.26953125 259.114257812 c 0
 268.090820312 224.068359375 251.918945312 124.166992188 241.264648438 92.302734375 c 0
 215.84375 16.28125 159.892578125 -17.4287109375 103 9 c 0
EndSplineSet
Validated: 524321
EndChar

StartChar: w
Encoding: 119 119 86
Width: 422
Flags: W
VStem: 0.456055 75.7383<103.521 325.464> 115.176 83.1084<154.21 268.716> 330.322 83.5137<67.5383 350.734>
LayerCount: 2
Fore
SplineSet
285 -17 m 2
 264.946289062 -14.06640625 243.502929688 -0.0341796875 207.376953125 33.7919921875 c 0
 191.131835938 49.0029296875 179.177734375 56.580078125 177.692382812 52.609375 c 0
 166.505859375 22.7021484375 127.991210938 -1.6396484375 99.193359375 2.998046875 c 0
 34.748046875 13.376953125 1.1484375 90.20703125 0.4560546875 228.77734375 c 0
 0.0546875 309.192382812 2.7236328125 318.456054688 29.18359375 328.439453125 c 0
 45.541015625 334.612304688 68.2861328125 324.744140625 73.66015625 309.142578125 c 0
 75.8623046875 302.749023438 77.001953125 277.569335938 76.1943359375 253.190429688 c 0
 74.189453125 192.875 90.8095703125 95.2734375 103.080078125 95.2734375 c 0
 112.52734375 95.2734375 121.91796875 172.740234375 115.17578125 195.072265625 c 0
 105.909179688 225.76171875 107.584960938 247.200195312 120.522460938 263.524414062 c 0
 134.364257812 280.986328125 163.911132812 283.546875 177.0859375 268.426757812 c 0
 187.329101562 256.670898438 198.284179688 225.6875 198.284179688 208.467773438 c 0
 198.284179688 201.540039062 208.782226562 175.55078125 221.614257812 150.711914062 c 0
 245.754882812 103.984375 287.057617188 60.1123046875 303.99609375 63.203125 c 0
 308.805664062 64.0810546875 319.01953125 77.265625 326.697265625 92.5029296875 c 0
 339.700195312 118.310546875 340.615234375 125.520507812 340.091796875 197.780273438 c 0
 339.66796875 255.255859375 337.14453125 281.633789062 330.322265625 299.599609375 c 0
 317.88671875 332.338867188 318.724609375 345.995117188 334.036132812 360.271484375 c 0
 366.053710938 390.122070312 396.983398438 364.775390625 413.8359375 294.875976562 c 0
 423.532226562 254.655273438 423.6484375 133.802734375 414.044921875 98.0439453125 c 0
 395.8671875 30.5068359375 348.75 -23.5869140625 311.001953125 -20.255859375 c 0
 305.828125 -19.8017578125 294.13671875 -18.3330078125 285.020507812 -17 c 2
 285 -17 l 2
EndSplineSet
Validated: 524321
EndChar

StartChar: x
Encoding: 120 120 87
Width: 266
Flags: W
HStem: 233.594 108.988<11.9086 57.8334> 307.013 20G<179.789 196.239>
VStem: 0.420898 111.923<283.197 329.757>
LayerCount: 2
Fore
SplineSet
16.474609375 16.9482421875 m 0x60
 -1.4111328125 45.287109375 2.4013671875 64.6357421875 37.396484375 123.15234375 c 2
 69 176 l 1
 60.2236328125 204.79296875 l 2
 55.3984375 220.627929688 48.5419921875 233.58984375 44.98828125 233.59375 c 0
 20.1171875 233.65234375 0.4208984375 256.793945312 0.4208984375 286 c 0
 0.4208984375 320.13671875 24.6533203125 342.58203125 61.5087890625 342.58203125 c 0xa0
 84.2470703125 342.58203125 99.5126953125 326.931640625 112.34375 290.45703125 c 0
 122.098632812 262.736328125 122.3515625 262.508789062 129.255859375 275.206054688 c 0
 133.110351562 282.29296875 143.370117188 296.849609375 152.053710938 307.552734375 c 0
 165.434570312 324.043945312 171.005859375 327.012695312 188.572265625 327.012695312 c 0
 203.90625 327.012695312 211.481445312 324.010742188 217.665039062 315.479492188 c 0
 230.65625 297.559570312 227.997070312 286.916015625 199.92578125 244.501953125 c 0
 168.723632812 197.357421875 156.196289062 174.428710938 156.196289062 164.465820312 c 0
 156.196289062 160.405273438 161.318359375 145.896484375 167.580078125 132.224609375 c 0
 177.62109375 110.29296875 179.596679688 108.534179688 184.360351562 117.294921875 c 0
 199.405273438 144.952148438 225.430664062 147.46484375 248.607421875 123.498046875 c 0
 263.560546875 108.033203125 264.58203125 104.53125 262.448242188 76.04296875 c 0
 260.389648438 48.5634765625 258.048828125 43.42578125 240.479492188 27.87109375 c 0
 217.756835938 7.7548828125 191.69140625 5.015625 163.3046875 19.759765625 c 0
 145.328125 29.0966796875 107.876953125 72.5224609375 107.817382812 84.0986328125 c 0
 107.817382812 87.8369140625 102.978515625 83.890625 97.1083984375 75.328125 c 0
 91.2373046875 66.765625 86.419921875 51.0029296875 86.40234375 40.2998046875 c 0
 86.40234375 15.0419921875 71.328125 0.0830078125 46 0.0830078125 c 0
 30.462890625 0.0830078125 25.2353515625 3.0703125 16.474609375 16.9482421875 c 0x60
EndSplineSet
Validated: 524321
EndChar

StartChar: y
Encoding: 121 121 88
Width: 263
Flags: W
VStem: 43.4756 80.8311<151.321 294.186> 196.057 67.1826<217.027 315.338>
LayerCount: 2
Fore
SplineSet
35.12109375 -194.6171875 m 1
 10.515625 -188.2265625 0.884765625 -177.150390625 0.884765625 -155.250976562 c 0
 0.884765625 -134.250976562 16.09375 -120.78515625 39.8134765625 -120.78515625 c 0
 54.474609375 -120.78515625 61.2099609375 -116.521484375 75.6015625 -98.1240234375 c 0
 95.7041015625 -72.4296875 116.700195312 -30.69921875 129 8 c 0
 137.258789062 33.990234375 137.201171875 34.33203125 123.7421875 39.1142578125 c 0
 96.4853515625 48.798828125 64.5908203125 120.336914062 43.4755859375 219.159179688 c 0
 32.9951171875 268.215820312 33.0009765625 268.592773438 44.5751953125 283.145507812 c 0
 61.33203125 304.206054688 92.458984375 306.005859375 112.70703125 287.083984375 c 0
 124.533203125 276.033203125 126.977539062 269.751953125 124.306640625 257.275390625 c 0
 120.913085938 241.416015625 127.71484375 208.0546875 146.4765625 148.55078125 c 0
 159.396484375 107.568359375 161.708984375 113.555664062 174.8125 221.98046875 c 0
 182.6953125 287.184570312 187.477539062 309.100585938 196.056640625 319.291015625 c 0
 218.725585938 346.221679688 263.483398438 329.228515625 263.239257812 293.78515625 c 0
 263.239257812 284.25390625 258.268554688 239.263671875 252.336914062 193.807617188 c 0
 225.71875 -10.2431640625 163.80078125 -153.237304688 86.005859375 -190.325195312 c 0
 61.650390625 -201.936523438 62.8935546875 -201.83203125 35.119140625 -194.6171875 c 1
 35.12109375 -194.6171875 l 1
EndSplineSet
Validated: 524321
EndChar

StartChar: z
Encoding: 122 122 89
Width: 329
Flags: W
HStem: 0 101.293<166.445 280.966>
LayerCount: 2
Fore
SplineSet
29.14453125 -1.671875 m 2
 -6.82421875 10.7158203125 -12.0546875 45.4951171875 16.708984375 81.0419921875 c 0
 27.0458984375 93.8193359375 58.08984375 136.180664062 85.697265625 175.181640625 c 2
 135.885742188 246.090820312 l 1
 116.614257812 254.993164062 l 2
 73.935546875 274.708984375 61.2724609375 311.229492188 88.2041015625 336.919921875 c 0
 106.127929688 354.016601562 123.453125 355.395507812 147.822265625 341.665039062 c 0
 164.912109375 332.036132812 166.038085938 332.263671875 192.182617188 350.603515625 c 0
 223.672851562 372.69140625 234.086914062 373.743164062 256.305664062 357.0703125 c 0
 281.452148438 338.203125 278.333007812 312.837890625 243.69140625 254.513671875 c 0
 227.700195312 227.592773438 202.440429688 188.223632812 187.561523438 167.028320312 c 2
 160.5078125 128.493164062 l 1
 180.381835938 108.934570312 l 2
 203.47265625 86.2119140625 214.271484375 84.9873046875 247.778320312 101.29296875 c 0
 279.79296875 116.87109375 298.731445312 116.34765625 315.403320312 99.419921875 c 0
 333.125976562 81.423828125 332.856445312 56.013671875 314.7890625 40.654296875 c 0
 296.076171875 24.75390625 231.66015625 0 209 0 c 0
 187.634765625 0 149.407226562 17.6220703125 132.818359375 35.1171875 c 0
 116.416992188 52.4169921875 110.842773438 51.134765625 85.5478515625 24.248046875 c 0
 63.1259765625 0.416015625 45.98046875 -7.4638671875 29.1552734375 -1.6708984375 c 2
 29.14453125 -1.671875 l 2
EndSplineSet
Validated: 524321
EndChar

StartChar: braceleft
Encoding: 123 123 90
Width: 182
Flags: W
HStem: 419.294 80.9912<114.323 152.844>
LayerCount: 2
Fore
SplineSet
82 13 m 2
 71.849609375 19.8720703125 57.5068359375 36.740234375 50.1259765625 50.484375 c 0
 38.1640625 72.759765625 37.0703125 79.9951171875 40.0576171875 117.12109375 c 0
 41.900390625 140.02734375 44.8642578125 166.560546875 46.64453125 176.083984375 c 0
 49.5439453125 191.596679688 48.2373046875 193.80859375 34.0869140625 197.340820312 c 0
 10.9267578125 203.12109375 -1.142578125 216.478515625 -1.142578125 236.326171875 c 0
 -1.142578125 255.416015625 13.6875 275.069335938 32.6279296875 281.081054688 c 0
 43.58984375 284.559570312 44.2666015625 287.422851562 40.9453125 316.221679688 c 0
 30.1015625 410.239257812 30.2021484375 412.3046875 47.23046875 444.71484375 c 0
 67.1591796875 482.642578125 91.8095703125 500.28515625 124.875976562 500.28515625 c 0
 183.407226562 500.28515625 196.463867188 429.905273438 139.901367188 419.293945312 c 0
 111.754882812 414.012695312 107.298828125 398.484375 118.364257812 344.232421875 c 0
 125.032226562 311.538085938 125.893554688 293.837890625 121.888671875 271.799804688 c 0
 118.703125 254.275390625 118.581054688 237.388671875 121.583984375 229.494140625 c 0
 128.5078125 211.282226562 127.827148438 167.798828125 120.09375 134.294921875 c 0
 111.59375 97.470703125 119.1953125 78.2490234375 142.259765625 78.2490234375 c 0
 175.532226562 78.2490234375 191.716796875 31.7646484375 165.76171875 10.7470703125 c 0
 147.43359375 -4.0947265625 105.588867188 -2.96875 82.001953125 13 c 1
 82 13 l 2
EndSplineSet
Validated: 524321
EndChar

StartChar: bar
Encoding: 124 124 91
Width: 80
Flags: W
VStem: 0 78.6777<8.87255 496.395>
LayerCount: 2
Fore
SplineSet
19.10546875 6.5341796875 m 0
 1.42578125 18.3388671875 0 36.80859375 0 254 c 0
 0 466.831054688 0.314453125 473.189453125 11.6474609375 487.59375 c 0
 25.8984375 505.7109375 51.267578125 507.333007812 67.4384765625 491.162109375 c 0
 78.3056640625 480.293945312 78.677734375 472.428710938 78.677734375 253.567382812 c 0
 78.677734375 1.634765625 78.7421875 2.1484375 43.2353515625 2.3193359375 c 0
 33.365234375 2.3828125 22.5068359375 4.2626953125 19.10546875 6.5341796875 c 0
EndSplineSet
Validated: 524321
EndChar

StartChar: braceright
Encoding: 125 125 92
Width: 179
Flags: W
HStem: 5.25391 74.1211<5.65067 58.6712> 420.479 81.4453<27.114 62.7772>
LayerCount: 2
Fore
SplineSet
21.9267578125 5.25390625 m 0
 10.96875 9.6630859375 -1.916015625 38.6005859375 2.078125 49.83203125 c 0
 8.6279296875 68.248046875 22.19140625 79.375 38.0908203125 79.375 c 0
 57.501953125 79.375 63.0712890625 95.9345703125 56.453125 133.98046875 c 0
 53.9638671875 148.2890625 52.2900390625 173.7578125 52.7333984375 190.577148438 c 0
 53.1787109375 207.396484375 53.607421875 243.676757812 53.689453125 271.19921875 c 0
 53.7734375 298.721679688 56.6123046875 334.631835938 60 351 c 0
 68.9345703125 394.163085938 63.482421875 416.372070312 42.9423828125 420.479492188 c 0
 -14.546875 431.977539062 -4.052734375 501.975585938 55.15234375 501.924804688 c 0
 89.232421875 501.861328125 111.081054688 486.403320312 129.16015625 449.452148438 c 0
 145.103515625 416.864257812 145.89453125 395.216796875 134.181640625 312.09375 c 0
 130.915039062 288.91015625 131.767578125 285.877929688 142.5078125 282.46875 c 0
 184.580078125 269.115234375 186.995117188 209.764648438 145.88671875 199.447265625 c 0
 129.666992188 195.375976562 127.637695312 178.895507812 138.1953125 136.96484375 c 0
 148.137695312 97.482421875 136.844726562 56.974609375 107.297851562 26.1376953125 c 0
 85.4638671875 3.3505859375 81.69921875 1.564453125 56.357421875 1.9716796875 c 0
 41.30859375 2.2109375 25.814453125 3.6904296875 21.9267578125 5.25390625 c 0
EndSplineSet
Validated: 524321
EndChar

StartChar: asciitilde
Encoding: 126 126 93
Width: 450
Flags: W
VStem: -3.21387 100.417<619.151 692.683>
LayerCount: 2
Fore
SplineSet
247.56640625 615.590820312 m 1
 228.912109375 625.547851562 193.556640625 648.233398438 169 666 c 0
 144.444335938 683.767578125 121.359375 696.454101562 117.700195312 694.192382812 c 0
 114.041015625 691.931640625 104.817382812 675.997070312 97.203125 658.783203125 c 0
 89.5888671875 641.5703125 78.4853515625 622.100585938 72.5283203125 615.518554688 c 0
 48.8857421875 589.39453125 -3.2138671875 610.534179688 -3.2138671875 646.251953125 c 0
 -3.2138671875 688.102539062 38.103515625 763.734375 72.384765625 784.63671875 c 0
 112.53515625 809.1171875 150.030273438 799.30859375 223.774414062 745.034179688 c 0
 248.146484375 727.09765625 277.986328125 707.388671875 290.084960938 701.239257812 c 2
 312.083007812 690.057617188 l 1
 331.877929688 712.118164062 l 2
 342.765625 724.250976562 359.05078125 742.467773438 368.068359375 752.599609375 c 0
 388.346679688 775.385742188 407.728515625 776.013671875 429.163085938 754.580078125 c 0
 451.640625 732.102539062 449.838867188 712.330078125 421.380859375 669.115234375 c 0
 374.002929688 597.173828125 315.702148438 579.220703125 247.56640625 615.590820312 c 1
EndSplineSet
Validated: 524321
EndChar

StartChar: underscore
Encoding: 95 95 94
Width: 307
Flags: W
HStem: 0 63.8945<24.1857 285.132>
LayerCount: 2
Fore
SplineSet
31.431640625 53.1376953125 m 5
 41.1826171875 63.6044921875 44.5166015625 63.89453125 155.145507812 63.89453125 c 4
 254.041015625 63.89453125 270.0078125 62.8349609375 277.826171875 55.759765625 c 4
 289.026367188 45.625 289.477539062 20.91796875 278.680664062 8.98828125 c 4
 271.244140625 0.771484375 260.729492188 0 156 0 c 4
 44.4921875 0 41.1875 0.2861328125 31.431640625 10.7568359375 c 4
 25.919921875 16.6728515625 21.41015625 26.208984375 21.41015625 31.947265625 c 4
 21.41015625 37.685546875 25.919921875 47.2216796875 31.431640625 53.1376953125 c 5
EndSplineSet
Validated: 524321
EndChar
